<svg width="403" height="194" viewBox="0 0 403 194" fill="none" xmlns="http://www.w3.org/2000/svg">
<mask id="path-1-inside-1" fill="white">
<path d="M8.2991 96.8995C8.2991 92.5995 7.3991 88.9995 1.0991 83.3995C0.299105 82.6995 0.499105 81.3995 1.4991 80.9995C57.0991 58.6995 42.8991 27.9995 104.799 3.59951L105.099 3.49951C118.299 -0.100486 142.499 -0.900486 171.299 1.99951H171.399C256.599 7.99951 373.099 19.3995 401.599 30.1995C402.199 30.3995 402.499 30.8995 402.499 31.4995V38.6995C402.499 39.5995 401.699 40.2995 400.799 40.0995C365.199 34.5995 190.299 24.8995 154.499 24.9995C154.099 24.9995 153.699 25.1995 153.499 25.3995C140.199 39.0995 142.599 53.9995 158.999 60.2995C159.199 60.3995 159.299 60.3995 159.499 60.3995C203.399 59.9995 305.099 64.6995 399.499 69.2995C400.199 69.2995 400.799 69.8995 400.899 70.6995L401.299 80.9995C401.299 81.7995 400.699 82.4995 399.899 82.4995L154.999 80.2995C154.699 80.2995 154.399 80.3995 154.199 80.4995C147.799 84.5995 145.399 89.8995 145.399 96.9995"/>
</mask>
<path d="M1.0991 83.3995L2.42783 81.9047L2.42199 81.8995L2.41611 81.8944L1.0991 83.3995ZM1.4991 80.9995L2.24189 82.8565L2.24361 82.8558L1.4991 80.9995ZM104.799 3.59951L104.167 1.70215L104.116 1.71914L104.066 1.73885L104.799 3.59951ZM105.099 3.49951L104.573 1.56999L104.519 1.58459L104.467 1.60215L105.099 3.49951ZM171.299 1.99951L171.099 3.98945L171.199 3.99951H171.299V1.99951ZM171.399 1.99951L171.54 0.0044553L171.469 -0.000485659H171.399V1.99951ZM401.599 30.1995L400.89 32.0697L400.928 32.0841L400.967 32.0969L401.599 30.1995ZM400.799 40.0995L401.233 38.1471L401.169 38.133L401.104 38.123L400.799 40.0995ZM154.499 24.9995V26.9995L154.505 26.9995L154.499 24.9995ZM153.499 25.3995L152.085 23.9853L152.074 23.9958L152.064 24.0064L153.499 25.3995ZM158.999 60.2995L159.894 58.5107L159.807 58.4673L159.716 58.4325L158.999 60.2995ZM159.499 60.3995V62.3995H159.508L159.517 62.3994L159.499 60.3995ZM399.499 69.2995L399.402 71.2971L399.45 71.2995H399.499V69.2995ZM400.899 70.6995L402.898 70.6219L402.894 70.5364L402.884 70.4514L400.899 70.6995ZM401.299 80.9995H403.299V80.9607L403.298 80.9219L401.299 80.9995ZM399.899 82.4995L399.881 84.4994L399.89 84.4995H399.899V82.4995ZM154.999 80.2995L155.017 78.2996L155.008 78.2995H154.999V80.2995ZM154.199 80.4995L153.305 78.7107L153.21 78.7582L153.12 78.8154L154.199 80.4995ZM10.2991 96.8995C10.2991 94.5902 10.0562 92.2869 8.86908 89.7808C7.69962 87.312 5.68964 84.8041 2.42783 81.9047L-0.229623 84.8943C2.80857 87.5949 4.39859 89.687 5.25413 91.4932C6.09205 93.2621 6.2991 94.9088 6.2991 96.8995H10.2991ZM2.41611 81.8944C2.70781 82.1496 2.66836 82.6859 2.24189 82.8565L0.756323 79.1426C-1.67015 80.1131 -2.1096 83.2494 -0.217905 84.9047L2.41611 81.8944ZM2.24361 82.8558C30.5226 71.5137 41.1357 57.9404 52.3299 44.3591C63.3498 30.9892 75.0158 17.4894 105.533 5.46018L104.066 1.73885C72.6824 14.1096 60.4984 28.1598 49.2433 41.8149C38.1625 55.2586 28.0756 68.1853 0.754597 79.1432L2.24361 82.8558ZM105.432 5.49688L105.732 5.39688L104.467 1.60215L104.167 1.70215L105.432 5.49688ZM105.625 5.42904C118.462 1.92818 142.363 1.09597 171.099 3.98945L171.499 0.00957725C142.635 -2.89694 118.136 -2.12915 104.573 1.56999L105.625 5.42904ZM171.299 3.99951H171.399V-0.000485659H171.299V3.99951ZM171.259 3.99457C213.839 6.99316 264.234 11.3408 307.535 16.2866C329.187 18.7597 349.047 21.3804 365.263 24.0541C381.532 26.7367 393.974 29.4489 400.89 32.0697L402.308 28.3293C394.974 25.5502 382.166 22.7873 365.914 20.1074C349.607 17.4187 329.674 14.7894 307.989 12.3124C264.615 7.35827 214.16 3.00586 171.54 0.0044553L171.259 3.99457ZM400.967 32.0969C400.868 32.0642 400.72 31.9743 400.61 31.8089C400.508 31.6565 400.499 31.5313 400.499 31.4995H404.499C404.499 30.1617 403.759 28.8114 402.232 28.3021L400.967 32.0969ZM400.499 31.4995V38.6995H404.499V31.4995H400.499ZM400.499 38.6995C400.499 38.5465 400.57 38.3902 400.7 38.2806C400.84 38.1629 401.045 38.1054 401.233 38.1471L400.365 42.0519C402.607 42.5501 404.499 40.7819 404.499 38.6995H400.499ZM401.104 38.123C383.189 35.3551 330.451 31.5506 277.842 28.453C225.207 25.3539 172.467 22.9493 154.494 22.9995L154.505 26.9995C172.331 26.9497 224.941 29.3452 277.607 32.4461C330.297 35.5485 382.81 39.344 400.494 42.0761L401.104 38.123ZM154.499 22.9995C153.534 22.9995 152.635 23.4355 152.085 23.9853L154.913 26.8137C154.85 26.877 154.8 26.912 154.776 26.9279C154.749 26.9454 154.728 26.9558 154.712 26.9628C154.689 26.9724 154.621 26.9995 154.499 26.9995V22.9995ZM152.064 24.0064C145.152 31.1263 142.016 38.8767 143.136 45.9379C144.267 53.0647 149.624 58.8408 158.282 62.1665L159.716 58.4325C151.974 55.4583 147.931 50.6343 147.087 45.3112C146.232 39.9223 148.546 33.3728 154.934 26.7926L152.064 24.0064ZM158.105 62.0884C158.335 62.2034 158.602 62.3067 158.92 62.3598C159.189 62.4046 159.438 62.3995 159.499 62.3995V58.3995C159.439 58.3995 159.436 58.3992 159.442 58.3994C159.456 58.4 159.507 58.4025 159.578 58.4142C159.653 58.4267 159.724 58.4453 159.788 58.4674C159.847 58.4879 159.885 58.5063 159.894 58.5107L158.105 62.0884ZM159.517 62.3994C203.344 62.0001 304.969 66.6955 399.402 71.2971L399.596 67.3019C305.23 62.7035 203.454 57.9989 159.481 58.3996L159.517 62.3994ZM399.499 71.2995C399.257 71.2995 399.089 71.1931 399.01 71.1137C398.933 71.0371 398.918 70.9715 398.915 70.9476L402.884 70.4514C402.687 68.8776 401.421 67.2995 399.499 67.2995V71.2995ZM398.901 70.7771L399.301 81.0771L403.298 80.9219L402.898 70.6219L398.901 70.7771ZM399.299 80.9995C399.299 80.9036 399.333 80.7985 399.419 80.7042C399.514 80.5998 399.687 80.4995 399.899 80.4995V84.4995C401.979 84.4995 403.299 82.7204 403.299 80.9995H399.299ZM399.917 80.4996L155.017 78.2996L154.981 82.2994L399.881 84.4994L399.917 80.4996ZM154.999 78.2995C154.301 78.2995 153.692 78.517 153.305 78.7107L155.094 82.2884C155.085 82.2927 155.082 82.2935 155.084 82.2928C155.085 82.2925 155.086 82.2922 155.087 82.2919C155.088 82.2916 155.088 82.2915 155.088 82.2915C155.088 82.2916 155.086 82.2919 155.084 82.2925C155.081 82.2931 155.077 82.2939 155.07 82.2949C155.058 82.2967 155.034 82.2995 154.999 82.2995V78.2995ZM153.12 78.8154C149.676 81.022 147.208 83.62 145.62 86.7106C144.038 89.7908 143.399 93.2247 143.399 96.9995H147.399C147.399 93.6744 147.961 90.9082 149.178 88.5385C150.39 86.179 152.322 84.0771 155.278 82.1836L153.12 78.8154Z" fill="#3BADA8" mask="url(#path-1-inside-1)"/>
<mask id="path-3-inside-2" fill="white">
<path fill-rule="evenodd" clip-rule="evenodd" d="M2.24524 82.8551C2.2447 82.8553 2.24416 82.8556 2.24361 82.8558L2.24189 82.8565M3.09734 82.5105C29.9386 71.5646 40.627 58.5779 51.37 45.5248C51.6898 45.1363 52.0096 44.7477 52.3299 44.3591C63.3438 30.9965 75.0031 17.5041 105.483 5.47983L105.678 5.41462C118.528 1.9259 142.403 1.09994 171.099 3.98945L171.199 3.99951H171.329C213.894 6.99794 264.257 11.3435 307.535 16.2866C329.187 18.7597 349.047 21.3804 365.263 24.0541C381.229 26.6868 393.51 29.3481 400.499 31.9235V38.031C382.025 35.2712 329.871 31.5164 277.842 28.453C225.209 25.354 172.472 22.9496 154.496 22.9995C154.497 22.9995 154.498 22.9995 154.499 22.9995V24.9995L154.494 22.9995C154.494 22.9995 154.495 22.9995 154.496 22.9995C153.532 23.0004 152.634 23.436 152.085 23.9853L152.074 23.9958L152.064 24.0064C145.152 31.1263 142.016 38.8767 143.136 45.9379C144.264 53.0447 149.594 58.8083 158.209 62.1384C158.415 62.2328 158.649 62.3145 158.92 62.3598C159.169 62.4012 159.4 62.4 159.482 62.3996L159.499 62.3995H159.508L159.517 62.3994C203.269 62.0008 304.623 66.6796 398.92 71.2737L399.278 80.4939L155.008 78.2995H154.999C154.301 78.2995 153.692 78.517 153.305 78.7107L153.21 78.7582L153.12 78.8154C149.676 81.022 147.208 83.62 145.62 86.7106C144.038 89.7905 143.399 93.2238 143.399 96.9981L145.399 96.9995C145.399 89.8995 147.799 84.5995 154.199 80.4995C154.399 80.3995 154.699 80.2995 154.999 80.2995L399.899 82.4995C400.699 82.4995 401.299 81.7995 401.299 80.9995L400.899 70.6995C400.799 69.8995 400.199 69.2995 399.499 69.2995C305.099 64.6995 203.399 59.9995 159.499 60.3995C159.299 60.3995 159.199 60.3995 158.999 60.2995C142.599 53.9995 140.199 39.0995 153.499 25.3995C153.699 25.1995 154.099 24.9995 154.499 24.9995C190.299 24.8995 365.199 34.5995 400.799 40.0995C401.699 40.2995 402.499 39.5995 402.499 38.6995V31.4995C402.499 30.8995 402.199 30.3995 401.599 30.1995C373.099 19.3995 256.599 7.99951 171.399 1.99951H171.299C142.499 -0.900486 118.299 -0.100486 105.099 3.49951L104.799 3.59951C72.9536 16.1525 61.2499 30.373 49.8214 44.2593C39.0355 57.3645 28.4947 70.1721 1.4991 80.9995C0.499105 81.3995 0.299105 82.6995 1.0991 83.3995C7.3991 88.9995 8.2991 92.5995 8.2991 96.8995H10.2991C10.2991 94.5902 10.0562 92.2869 8.86908 89.7808C7.78183 87.4855 5.9681 85.1565 3.09734 82.5105Z"/>
</mask>
<path d="M2.61529 83.7841L2.61864 83.7828L1.87184 81.9274L1.86848 81.9288L2.61529 83.7841ZM2.24361 82.8558L2.98993 84.7113L2.99759 84.7082L2.24361 82.8558ZM3.09734 82.5105L2.34212 80.6586L-0.573081 81.8474L1.74187 83.9811L3.09734 82.5105ZM51.37 45.5248L52.9142 46.7958L52.9142 46.7958L51.37 45.5248ZM52.3299 44.3591L50.7866 43.087L50.7866 43.087L52.3299 44.3591ZM105.483 5.47983L104.85 3.58248L104.799 3.59956L104.749 3.61937L105.483 5.47983ZM105.678 5.41462L105.154 3.4845L105.1 3.49934L105.046 3.51726L105.678 5.41462ZM171.099 3.98945L170.898 5.97939L170.898 5.97939L171.099 3.98945ZM171.199 3.99951L170.998 5.98945L171.098 5.99951H171.199V3.99951ZM171.329 3.99951L171.469 2.00446L171.399 1.99951H171.329V3.99951ZM307.535 16.2866L307.762 14.2995L307.762 14.2995L307.535 16.2866ZM365.263 24.0541L364.937 26.0275L364.937 26.0275L365.263 24.0541ZM400.499 31.9235H402.499V30.5291L401.191 30.0469L400.499 31.9235ZM400.499 38.031L400.204 40.0091L402.499 40.352V38.031H400.499ZM277.842 28.453L277.724 30.4495L277.724 30.4495L277.842 28.453ZM154.499 22.9995H156.499V20.9995H154.499V22.9995ZM154.499 24.9995L154.499 26.9995L154.505 26.9995L154.499 24.9995ZM154.494 22.9995V20.9995H152.488L152.494 23.0051L154.494 22.9995ZM152.085 23.9853L150.671 22.5711L150.67 22.5716L152.085 23.9853ZM152.074 23.9958L150.66 22.5821L150.65 22.5919L150.64 22.6018L152.074 23.9958ZM152.064 24.0064L150.63 22.6124L150.629 22.6133L152.064 24.0064ZM143.136 45.9379L145.112 45.6245L145.112 45.6245L143.136 45.9379ZM158.209 62.1384L159.043 60.3207L158.987 60.2951L158.93 60.2729L158.209 62.1384ZM158.92 62.3598L158.591 64.3326L158.591 64.3326L158.92 62.3598ZM159.482 62.3996L159.474 60.3996L159.472 60.3996L159.482 62.3996ZM159.499 62.3995V60.3995L159.492 60.3995L159.499 62.3995ZM159.508 62.3995V64.3995H159.517L159.527 64.3994L159.508 62.3995ZM159.517 62.3994L159.499 60.3995L159.499 60.3995L159.517 62.3994ZM398.92 71.2737L400.918 71.1961L400.847 69.3652L399.017 69.276L398.92 71.2737ZM399.278 80.4939L399.26 82.4938L401.358 82.5126L401.276 80.4162L399.278 80.4939ZM155.008 78.2995L155.026 76.2996L155.017 76.2995H155.008V78.2995ZM153.21 78.7582L152.315 76.9693L152.22 77.0168L152.131 77.0741L153.21 78.7582ZM153.12 78.8154L152.041 77.1314L152.041 77.1314L153.12 78.8154ZM145.62 86.7106L147.399 87.6245L147.399 87.6245L145.62 86.7106ZM143.399 96.9981L141.399 96.998L141.399 98.9966L143.398 98.9981L143.399 96.9981ZM145.399 96.9995L145.398 98.9995L147.399 99.001V96.9995H145.399ZM154.199 80.4995L153.305 78.7107L153.21 78.7582L153.12 78.8154L154.199 80.4995ZM154.999 80.2995L155.017 78.2996L155.008 78.2995H154.999V80.2995ZM399.899 82.4995L399.881 84.4994L399.89 84.4995H399.899V82.4995ZM401.299 80.9995H403.299V80.9607L403.298 80.9219L401.299 80.9995ZM400.899 70.6995L402.898 70.6219L402.894 70.5364L402.884 70.4514L400.899 70.6995ZM399.499 69.2995L399.402 71.2971L399.45 71.2995H399.499V69.2995ZM159.499 60.3995V62.3995H159.508L159.517 62.3994L159.499 60.3995ZM158.999 60.2995L159.894 58.5107L159.807 58.4673L159.716 58.4325L158.999 60.2995ZM153.499 25.3995L152.085 23.9853L152.074 23.9958L152.064 24.0064L153.499 25.3995ZM400.799 40.0995L401.233 38.1471L401.169 38.133L401.104 38.123L400.799 40.0995ZM401.599 30.1995L400.89 32.0697L400.928 32.0841L400.967 32.0969L401.599 30.1995ZM171.399 1.99951L171.54 0.0044553L171.469 -0.000485659H171.399V1.99951ZM171.299 1.99951L171.099 3.98945L171.199 3.99951H171.299V1.99951ZM105.099 3.49951L104.573 1.56999L104.519 1.58459L104.467 1.60215L105.099 3.49951ZM104.799 3.59951L104.167 1.70215L104.116 1.71914L104.066 1.73885L104.799 3.59951ZM49.8214 44.2593L48.2771 42.9883L48.2771 42.9883L49.8214 44.2593ZM1.4991 80.9995L2.24189 82.8565L2.24361 82.8558L1.4991 80.9995ZM1.0991 83.3995L2.42783 81.9047L2.42199 81.8995L2.41611 81.8944L1.0991 83.3995ZM8.2991 96.8995H6.2991V98.8995H8.2991V96.8995ZM10.2991 96.8995V98.8995H12.2991V96.8995H10.2991ZM8.86908 89.7808L10.6766 88.9247L10.6766 88.9247L8.86908 89.7808ZM2.99759 84.7082C2.99447 84.7095 2.99197 84.7105 2.99051 84.7111C2.98918 84.7116 2.98806 84.7121 2.9884 84.7119C2.98842 84.7119 2.9888 84.7118 2.98923 84.7116C2.9897 84.7114 2.99043 84.7111 2.99132 84.7107C2.99306 84.71 2.99583 84.7089 2.99922 84.7076L1.49127 81.0027C1.49438 81.0014 1.49688 81.0004 1.49835 80.9998C1.49968 80.9993 1.50079 80.9988 1.50045 80.999C1.50043 80.999 1.50005 80.9991 1.49962 80.9993C1.49915 80.9995 1.49842 80.9998 1.49753 81.0001C1.49579 81.0008 1.49302 81.002 1.48964 81.0033L2.99759 84.7082ZM2.9882 84.712L2.98993 84.7113L1.4973 81.0002L1.49557 81.0009L2.9882 84.712ZM3.85256 84.3624C31.1514 73.2299 42.0961 59.9402 52.9142 46.7958L49.8258 44.2539C39.158 57.2156 28.7258 69.8993 2.34212 80.6586L3.85256 84.3624ZM52.9142 46.7958C53.2341 46.4072 53.5535 46.0191 53.8733 45.6311L50.7866 43.087C50.4658 43.4763 50.1455 43.8654 49.8258 44.2539L52.9142 46.7958ZM53.8733 45.6311C64.7698 32.411 76.1701 19.1937 106.217 7.34029L104.749 3.61937C73.836 15.8145 61.9179 29.582 50.7866 43.087L53.8733 45.6311ZM106.115 7.37719L106.311 7.31198L105.046 3.51726L104.85 3.58248L106.115 7.37719ZM106.202 7.34474C118.689 3.95437 142.268 3.09643 170.898 5.97939L171.299 1.99951C142.538 -0.896544 118.366 -0.102564 105.154 3.4845L106.202 7.34474ZM170.898 5.97939L170.998 5.98945L171.399 2.00958L171.299 1.99951L170.898 5.97939ZM171.188 5.99457C213.733 8.99159 264.067 13.3347 307.308 18.2737L307.762 14.2995C264.448 9.35223 214.054 5.00429 171.469 2.00446L171.188 5.99457ZM307.308 18.2737C328.943 20.7448 348.767 23.3612 364.937 26.0275L365.588 22.0808C349.327 19.3995 329.43 16.7745 307.762 14.2995L307.308 18.2737ZM364.937 26.0275C380.908 28.6608 393.017 31.2978 399.808 33.8002L401.191 30.0469C394.004 27.3984 381.551 24.7129 365.588 22.0808L364.937 26.0275ZM398.499 31.9235V38.031H402.499V31.9235H398.499ZM400.795 36.053C382.212 33.2769 329.952 29.5177 277.959 26.4564L277.724 30.4495C329.789 33.5151 381.839 37.2656 400.204 40.0091L400.795 36.053ZM277.959 26.4564C225.342 23.3584 172.54 20.9494 154.491 20.9995L154.502 24.9995C172.405 24.9498 225.077 27.3497 277.724 30.4495L277.959 26.4564ZM154.499 20.9995C154.499 20.9995 154.499 20.9995 154.499 20.9995C154.499 20.9995 154.499 20.9995 154.499 20.9995C154.499 20.9995 154.499 20.9995 154.499 20.9995C154.499 20.9995 154.499 20.9995 154.499 20.9995C154.499 20.9995 154.499 20.9995 154.499 20.9995C154.499 20.9995 154.499 20.9995 154.499 20.9995C154.499 20.9995 154.499 20.9995 154.499 20.9995C154.499 20.9995 154.499 20.9995 154.499 20.9995C154.499 20.9995 154.499 20.9995 154.499 20.9995C154.499 20.9995 154.499 20.9995 154.499 20.9995C154.499 20.9995 154.499 20.9995 154.499 20.9995C154.499 20.9995 154.499 20.9995 154.499 20.9995C154.499 20.9995 154.499 20.9995 154.499 20.9995C154.499 20.9995 154.499 20.9995 154.499 20.9995C154.499 20.9995 154.499 20.9995 154.499 20.9995C154.499 20.9995 154.499 20.9995 154.499 20.9995C154.499 20.9995 154.499 20.9995 154.499 20.9995C154.499 20.9995 154.499 20.9995 154.499 20.9995C154.499 20.9995 154.499 20.9995 154.499 20.9995C154.499 20.9995 154.499 20.9995 154.499 20.9995C154.499 20.9995 154.499 20.9995 154.499 20.9995C154.499 20.9995 154.499 20.9995 154.499 20.9995C154.499 20.9995 154.499 20.9995 154.499 20.9995C154.499 20.9995 154.499 20.9995 154.499 20.9995C154.499 20.9995 154.499 20.9995 154.499 20.9995C154.499 20.9995 154.499 20.9995 154.499 20.9995C154.499 20.9995 154.499 20.9995 154.499 20.9995C154.499 20.9995 154.499 20.9995 154.499 20.9995C154.499 20.9995 154.499 20.9995 154.499 20.9995C154.499 20.9995 154.499 20.9995 154.499 20.9995C154.499 20.9995 154.499 20.9995 154.499 20.9995C154.499 20.9995 154.499 20.9995 154.499 20.9995C154.499 20.9995 154.499 20.9995 154.499 20.9995C154.499 20.9995 154.499 20.9995 154.499 20.9995C154.499 20.9995 154.499 20.9995 154.499 20.9995C154.499 20.9995 154.499 20.9995 154.499 20.9995C154.499 20.9995 154.499 20.9995 154.499 20.9995C154.499 20.9995 154.499 20.9995 154.499 20.9995C154.499 20.9995 154.499 20.9995 154.499 20.9995C154.499 20.9995 154.499 20.9995 154.499 20.9995C154.499 20.9995 154.499 20.9995 154.499 20.9995C154.499 20.9995 154.499 20.9995 154.499 20.9995C154.499 20.9995 154.499 20.9995 154.499 20.9995C154.499 20.9995 154.499 20.9995 154.499 20.9995C154.499 20.9995 154.499 20.9995 154.499 20.9995C154.499 20.9995 154.499 20.9995 154.499 20.9995C154.499 20.9995 154.499 20.9995 154.499 20.9995C154.499 20.9995 154.499 20.9995 154.499 20.9995C154.499 20.9995 154.499 20.9995 154.499 20.9995C154.499 20.9995 154.499 20.9995 154.499 20.9995C154.499 20.9995 154.499 20.9995 154.499 20.9995C154.499 20.9995 154.499 20.9995 154.499 20.9995C154.499 20.9995 154.499 20.9995 154.499 20.9995C154.499 20.9995 154.499 20.9995 154.499 20.9995C154.499 20.9995 154.499 20.9995 154.499 20.9995C154.499 20.9995 154.499 20.9995 154.499 20.9995C154.499 20.9995 154.499 20.9995 154.499 20.9995C154.499 20.9995 154.499 20.9995 154.499 20.9995C154.499 20.9995 154.499 20.9995 154.499 20.9995C154.499 20.9995 154.499 20.9995 154.499 20.9995C154.499 20.9995 154.499 20.9995 154.499 20.9995C154.499 20.9995 154.499 20.9995 154.499 20.9995C154.499 20.9995 154.499 20.9995 154.499 20.9995C154.499 20.9995 154.499 20.9995 154.499 20.9995C154.499 20.9995 154.499 20.9995 154.499 20.9995C154.499 20.9995 154.499 20.9995 154.499 20.9995C154.499 20.9995 154.499 20.9995 154.499 20.9995C154.499 20.9995 154.499 20.9995 154.499 20.9995C154.499 20.9995 154.499 20.9995 154.499 20.9995C154.499 20.9995 154.499 20.9995 154.499 20.9995C154.499 20.9995 154.499 20.9995 154.499 20.9995C154.499 20.9995 154.499 20.9995 154.499 20.9995C154.499 20.9995 154.499 20.9995 154.499 20.9995C154.499 20.9995 154.499 20.9995 154.499 20.9995C154.499 20.9995 154.499 20.9995 154.499 20.9995C154.499 20.9995 154.499 20.9995 154.499 20.9995C154.499 20.9995 154.499 20.9995 154.499 20.9995C154.499 20.9995 154.499 20.9995 154.499 20.9995C154.499 20.9995 154.499 20.9995 154.499 20.9995C154.499 20.9995 154.499 20.9995 154.499 20.9995C154.499 20.9995 154.499 20.9995 154.499 20.9995C154.499 20.9995 154.499 20.9995 154.499 20.9995C154.499 20.9995 154.499 20.9995 154.499 20.9995C154.499 20.9995 154.499 20.9995 154.499 20.9995C154.499 20.9995 154.499 20.9995 154.499 20.9995C154.499 20.9995 154.499 20.9995 154.499 20.9995C154.499 20.9995 154.499 20.9995 154.499 20.9995C154.499 20.9995 154.499 20.9995 154.499 20.9995C154.499 20.9995 154.499 20.9995 154.499 20.9995C154.499 20.9995 154.499 20.9995 154.499 20.9995C154.499 20.9995 154.499 20.9995 154.499 20.9995C154.499 20.9995 154.499 20.9995 154.499 20.9995C154.499 20.9995 154.499 20.9995 154.499 20.9995C154.499 20.9995 154.499 20.9995 154.499 20.9995C154.499 20.9995 154.499 20.9995 154.499 20.9995C154.499 20.9995 154.499 20.9995 154.499 20.9995C154.499 20.9995 154.499 20.9995 154.499 20.9995C154.499 20.9995 154.499 20.9995 154.499 20.9995C154.499 20.9995 154.499 20.9995 154.499 20.9995C154.499 20.9995 154.499 20.9995 154.499 20.9995C154.499 20.9995 154.499 20.9995 154.499 20.9995C154.499 20.9995 154.499 20.9995 154.499 20.9995C154.499 20.9995 154.499 20.9995 154.499 20.9995C154.499 20.9995 154.499 20.9995 154.499 20.9995C154.499 20.9995 154.499 20.9995 154.499 20.9995C154.499 20.9995 154.499 20.9995 154.499 20.9995C154.499 20.9995 154.499 20.9995 154.499 20.9995C154.499 20.9995 154.499 20.9995 154.499 20.9995C154.499 20.9995 154.499 20.9995 154.499 20.9995C154.499 20.9995 154.499 20.9995 154.498 20.9995C154.498 20.9995 154.498 20.9995 154.498 20.9995C154.498 20.9995 154.498 20.9995 154.498 20.9995C154.498 20.9995 154.498 20.9995 154.498 20.9995C154.498 20.9995 154.498 20.9995 154.498 20.9995C154.498 20.9995 154.498 20.9995 154.498 20.9995C154.498 20.9995 154.498 20.9995 154.498 20.9995C154.498 20.9995 154.498 20.9995 154.498 20.9995C154.498 20.9995 154.498 20.9995 154.498 20.9995C154.498 20.9995 154.498 20.9995 154.498 20.9995C154.498 20.9995 154.498 20.9995 154.498 20.9995C154.498 20.9995 154.498 20.9995 154.498 20.9995C154.498 20.9995 154.498 20.9995 154.498 20.9995C154.498 20.9995 154.498 20.9995 154.498 20.9995C154.498 20.9995 154.498 20.9995 154.498 20.9995C154.498 20.9995 154.498 20.9995 154.498 20.9995C154.498 20.9995 154.498 20.9995 154.498 20.9995C154.498 20.9995 154.498 20.9995 154.498 20.9995C154.498 20.9995 154.498 20.9995 154.498 20.9995C154.498 20.9995 154.498 20.9995 154.498 20.9995C154.498 20.9995 154.498 20.9995 154.498 20.9995C154.498 20.9995 154.498 20.9995 154.498 20.9995C154.498 20.9995 154.498 20.9995 154.498 20.9995C154.498 20.9995 154.498 20.9995 154.498 20.9995C154.498 20.9995 154.498 20.9995 154.498 20.9995C154.498 20.9995 154.498 20.9995 154.498 20.9995C154.498 20.9995 154.498 20.9995 154.498 20.9995C154.498 20.9995 154.498 20.9995 154.498 20.9995C154.498 20.9995 154.498 20.9995 154.498 20.9995C154.498 20.9995 154.498 20.9995 154.498 20.9995C154.498 20.9995 154.498 20.9995 154.498 20.9995C154.498 20.9995 154.498 20.9995 154.498 20.9995C154.498 20.9995 154.498 20.9995 154.498 20.9995C154.498 20.9995 154.498 20.9995 154.498 20.9995C154.498 20.9995 154.498 20.9995 154.498 20.9995C154.498 20.9995 154.498 20.9995 154.498 20.9995C154.498 20.9995 154.498 20.9995 154.498 20.9995C154.498 20.9995 154.498 20.9995 154.498 20.9995C154.498 20.9995 154.498 20.9995 154.498 20.9995C154.498 20.9995 154.498 20.9995 154.498 20.9995C154.498 20.9995 154.498 20.9995 154.498 20.9995C154.498 20.9995 154.498 20.9995 154.498 20.9995C154.498 20.9995 154.498 20.9995 154.498 20.9995C154.498 20.9995 154.498 20.9995 154.498 20.9995C154.498 20.9995 154.498 20.9995 154.498 20.9995C154.498 20.9995 154.498 20.9995 154.498 20.9995C154.498 20.9995 154.498 20.9995 154.498 20.9995C154.498 20.9995 154.498 20.9995 154.498 20.9995C154.498 20.9995 154.498 20.9995 154.498 20.9995C154.498 20.9995 154.498 20.9995 154.498 20.9995C154.498 20.9995 154.498 20.9995 154.498 20.9995C154.498 20.9995 154.498 20.9995 154.498 20.9995C154.498 20.9995 154.498 20.9995 154.498 20.9995C154.498 20.9995 154.498 20.9995 154.498 20.9995C154.498 20.9995 154.498 20.9995 154.498 20.9995C154.498 20.9995 154.498 20.9995 154.498 20.9995C154.498 20.9995 154.498 20.9995 154.498 20.9995C154.498 20.9995 154.498 20.9995 154.498 20.9995C154.498 20.9995 154.498 20.9995 154.498 20.9995C154.498 20.9995 154.498 20.9995 154.498 20.9995C154.498 20.9995 154.498 20.9995 154.498 20.9995C154.498 20.9995 154.498 20.9995 154.498 20.9995C154.498 20.9995 154.498 20.9995 154.498 20.9995C154.498 20.9995 154.498 20.9995 154.498 20.9995C154.498 20.9995 154.498 20.9995 154.498 20.9995C154.498 20.9995 154.498 20.9995 154.498 20.9995C154.498 20.9995 154.498 20.9995 154.498 20.9995C154.498 20.9995 154.498 20.9995 154.498 20.9995C154.498 20.9995 154.498 20.9995 154.498 20.9995C154.498 20.9995 154.498 20.9995 154.498 20.9995C154.498 20.9995 154.498 20.9995 154.498 20.9995C154.498 20.9995 154.498 20.9995 154.498 20.9995C154.498 20.9995 154.498 20.9995 154.498 20.9995C154.498 20.9995 154.498 20.9995 154.498 20.9995C154.498 20.9995 154.498 20.9995 154.498 20.9995C154.498 20.9995 154.498 20.9995 154.498 20.9995C154.498 20.9995 154.498 20.9995 154.498 20.9995C154.498 20.9995 154.498 20.9995 154.498 20.9995C154.498 20.9995 154.498 20.9995 154.498 20.9995C154.498 20.9995 154.498 20.9995 154.498 20.9995C154.498 20.9995 154.498 20.9995 154.498 20.9995C154.498 20.9995 154.498 20.9995 154.498 20.9995C154.498 20.9995 154.498 20.9995 154.498 20.9995C154.498 20.9995 154.498 20.9995 154.498 20.9995C154.498 20.9995 154.498 20.9995 154.498 20.9995C154.498 20.9995 154.498 20.9995 154.498 20.9995C154.498 20.9995 154.498 20.9995 154.498 20.9995C154.498 20.9995 154.498 20.9995 154.498 20.9995C154.498 20.9995 154.498 20.9995 154.498 20.9995C154.498 20.9995 154.498 20.9995 154.498 20.9995C154.498 20.9995 154.498 20.9995 154.498 20.9995C154.498 20.9995 154.498 20.9995 154.498 20.9995C154.498 20.9995 154.498 20.9995 154.498 20.9995C154.498 20.9995 154.498 20.9995 154.498 20.9995C154.498 20.9995 154.498 20.9995 154.498 20.9995C154.498 20.9995 154.498 20.9995 154.498 20.9995C154.498 20.9995 154.498 20.9995 154.498 20.9995C154.498 20.9995 154.498 20.9995 154.498 20.9995C154.498 20.9995 154.498 20.9995 154.498 20.9995C154.498 20.9995 154.498 20.9995 154.498 20.9995C154.498 20.9995 154.498 20.9995 154.498 20.9995C154.498 20.9995 154.498 20.9995 154.498 20.9995C154.498 20.9995 154.498 20.9995 154.498 20.9995C154.498 20.9995 154.498 20.9995 154.498 20.9995C154.498 20.9995 154.498 20.9995 154.498 20.9995C154.498 20.9995 154.498 20.9995 154.498 20.9995C154.498 20.9995 154.498 20.9995 154.498 20.9995C154.498 20.9995 154.498 20.9995 154.498 20.9995C154.498 20.9995 154.498 20.9995 154.498 20.9995C154.498 20.9995 154.498 20.9995 154.498 20.9995C154.498 20.9995 154.498 20.9995 154.498 20.9995C154.498 20.9995 154.498 20.9995 154.498 20.9995C154.498 20.9995 154.498 20.9995 154.498 20.9995C154.498 20.9995 154.498 20.9995 154.498 20.9995C154.498 20.9995 154.498 20.9995 154.498 20.9995C154.498 20.9995 154.498 20.9995 154.498 20.9995C154.498 20.9995 154.498 20.9995 154.498 20.9995C154.498 20.9995 154.498 20.9995 154.498 20.9995C154.498 20.9995 154.498 20.9995 154.498 20.9995C154.498 20.9995 154.498 20.9995 154.498 20.9995C154.498 20.9995 154.498 20.9995 154.498 20.9995C154.498 20.9995 154.498 20.9995 154.498 20.9995C154.498 20.9995 154.498 20.9995 154.498 20.9995C154.498 20.9995 154.498 20.9995 154.498 20.9995C154.498 20.9995 154.498 20.9995 154.498 20.9995C154.498 20.9995 154.498 20.9995 154.498 20.9995C154.498 20.9995 154.498 20.9995 154.498 20.9995C154.498 20.9995 154.498 20.9995 154.498 20.9995C154.498 20.9995 154.498 20.9995 154.498 20.9995C154.498 20.9995 154.498 20.9995 154.498 20.9995C154.498 20.9995 154.498 20.9995 154.498 20.9995C154.498 20.9995 154.498 20.9995 154.498 20.9995C154.498 20.9995 154.498 20.9995 154.498 20.9995C154.498 20.9995 154.498 20.9995 154.498 20.9995C154.498 20.9995 154.498 20.9995 154.498 20.9995C154.498 20.9995 154.498 20.9995 154.498 20.9995C154.498 20.9995 154.498 20.9995 154.498 20.9995C154.498 20.9995 154.498 20.9995 154.498 20.9995C154.498 20.9995 154.498 20.9995 154.498 20.9995C154.498 20.9995 154.498 20.9995 154.498 20.9995C154.498 20.9995 154.498 20.9995 154.498 20.9995C154.498 20.9995 154.498 20.9995 154.498 20.9995C154.498 20.9995 154.498 20.9995 154.498 20.9995C154.498 20.9995 154.498 20.9995 154.498 20.9995C154.498 20.9995 154.498 20.9995 154.498 20.9995C154.498 20.9995 154.498 20.9995 154.498 20.9995C154.498 20.9995 154.498 20.9995 154.498 20.9995C154.498 20.9995 154.498 20.9995 154.498 20.9995C154.498 20.9995 154.498 20.9995 154.498 20.9995C154.498 20.9995 154.498 20.9995 154.498 20.9995C154.498 20.9995 154.498 20.9995 154.498 20.9995C154.498 20.9995 154.498 20.9995 154.498 20.9995C154.498 20.9995 154.498 20.9995 154.498 20.9995C154.498 20.9995 154.498 20.9995 154.498 20.9995C154.498 20.9995 154.498 20.9995 154.498 20.9995C154.498 20.9995 154.498 20.9995 154.498 20.9995C154.498 20.9995 154.498 20.9995 154.498 20.9995C154.498 20.9995 154.498 20.9995 154.498 20.9995C154.498 20.9995 154.498 20.9995 154.498 20.9995C154.498 20.9995 154.498 20.9995 154.498 20.9995C154.498 20.9995 154.498 20.9995 154.498 20.9995C154.498 20.9995 154.498 20.9995 154.498 20.9995C154.498 20.9995 154.498 20.9995 154.498 20.9995C154.498 20.9995 154.498 20.9995 154.498 20.9995C154.498 20.9995 154.498 20.9995 154.498 20.9995C154.498 20.9995 154.498 20.9995 154.498 20.9995C154.498 20.9995 154.498 20.9995 154.498 20.9995C154.498 20.9995 154.498 20.9995 154.498 20.9995C154.498 20.9995 154.498 20.9995 154.498 20.9995C154.498 20.9995 154.498 20.9995 154.498 20.9995C154.498 20.9995 154.498 20.9995 154.498 20.9995C154.498 20.9995 154.498 20.9995 154.498 20.9995C154.498 20.9995 154.498 20.9995 154.498 20.9995C154.498 20.9995 154.498 20.9995 154.498 20.9995C154.498 20.9995 154.498 20.9995 154.498 20.9995C154.498 20.9995 154.498 20.9995 154.498 20.9995C154.498 20.9995 154.498 20.9995 154.498 20.9995C154.498 20.9995 154.498 20.9995 154.498 20.9995C154.498 20.9995 154.498 20.9995 154.498 20.9995C154.498 20.9995 154.498 20.9995 154.498 20.9995C154.498 20.9995 154.498 20.9995 154.498 20.9995C154.498 20.9995 154.498 20.9995 154.498 20.9995C154.498 20.9995 154.498 20.9995 154.498 20.9995C154.498 20.9995 154.498 20.9995 154.498 20.9995C154.497 20.9995 154.497 20.9995 154.497 20.9995C154.497 20.9995 154.497 20.9995 154.497 20.9995C154.497 20.9995 154.497 20.9995 154.497 20.9995C154.497 20.9995 154.497 20.9995 154.497 20.9995C154.497 20.9995 154.497 20.9995 154.497 20.9995C154.497 20.9995 154.497 20.9995 154.497 20.9995C154.497 20.9995 154.497 20.9995 154.497 20.9995C154.497 20.9995 154.497 20.9995 154.497 20.9995C154.497 20.9995 154.497 20.9995 154.497 20.9995C154.497 20.9995 154.497 20.9995 154.497 20.9995C154.497 20.9995 154.497 20.9995 154.497 20.9995C154.497 20.9995 154.497 20.9995 154.497 20.9995C154.497 20.9995 154.497 20.9995 154.497 20.9995C154.497 20.9995 154.497 20.9995 154.497 20.9995C154.497 20.9995 154.497 20.9995 154.497 20.9995C154.497 20.9995 154.497 20.9995 154.497 20.9995C154.497 20.9995 154.497 20.9995 154.497 20.9995C154.497 20.9995 154.497 20.9995 154.497 20.9995C154.497 20.9995 154.497 20.9995 154.497 20.9995C154.497 20.9995 154.497 20.9995 154.497 20.9995C154.497 20.9995 154.497 20.9995 154.497 20.9995C154.497 20.9995 154.497 20.9995 154.497 20.9995C154.497 20.9995 154.497 20.9995 154.497 20.9995C154.497 20.9995 154.497 20.9995 154.497 20.9995C154.497 20.9995 154.497 20.9995 154.497 20.9995C154.497 20.9995 154.497 20.9995 154.497 20.9995C154.497 20.9995 154.497 20.9995 154.497 20.9995C154.497 20.9995 154.497 20.9995 154.497 20.9995C154.497 20.9995 154.497 20.9995 154.497 20.9995C154.497 20.9995 154.497 20.9995 154.497 20.9995C154.497 20.9995 154.497 20.9995 154.497 20.9995C154.497 20.9995 154.497 20.9995 154.497 20.9995C154.497 20.9995 154.497 20.9995 154.497 20.9995C154.497 20.9995 154.497 20.9995 154.497 20.9995C154.497 20.9995 154.497 20.9995 154.497 20.9995C154.497 20.9995 154.497 20.9995 154.497 20.9995C154.497 20.9995 154.497 20.9995 154.497 20.9995C154.497 20.9995 154.497 20.9995 154.497 20.9995C154.497 20.9995 154.497 20.9995 154.497 20.9995C154.497 20.9995 154.497 20.9995 154.497 20.9995C154.497 20.9995 154.497 20.9995 154.497 20.9995C154.497 20.9995 154.497 20.9995 154.497 20.9995C154.497 20.9995 154.497 20.9995 154.497 20.9995C154.497 20.9995 154.497 20.9995 154.497 20.9995C154.497 20.9995 154.497 20.9995 154.497 20.9995C154.497 20.9995 154.497 20.9995 154.497 20.9995C154.497 20.9995 154.497 20.9995 154.497 20.9995C154.497 20.9995 154.497 20.9995 154.497 20.9995C154.497 20.9995 154.497 20.9995 154.497 20.9995C154.497 20.9995 154.497 20.9995 154.497 20.9995C154.497 20.9995 154.497 20.9995 154.497 20.9995C154.497 20.9995 154.497 20.9995 154.497 20.9995C154.497 20.9995 154.497 20.9995 154.497 20.9995C154.497 20.9995 154.497 20.9995 154.497 20.9995C154.497 20.9995 154.497 20.9995 154.497 20.9995C154.497 20.9995 154.497 20.9995 154.497 20.9995C154.497 20.9995 154.497 20.9995 154.497 20.9995C154.497 20.9995 154.497 20.9995 154.497 20.9995C154.497 20.9995 154.497 20.9995 154.497 20.9995C154.497 20.9995 154.497 20.9995 154.497 20.9995C154.497 20.9995 154.497 20.9995 154.497 20.9995C154.497 20.9995 154.497 20.9995 154.497 20.9995C154.497 20.9995 154.497 20.9995 154.497 20.9995C154.497 20.9995 154.497 20.9995 154.497 20.9995C154.497 20.9995 154.497 20.9995 154.497 20.9995C154.497 20.9995 154.497 20.9995 154.497 20.9995C154.497 20.9995 154.497 20.9995 154.497 20.9995C154.497 20.9995 154.497 20.9995 154.497 20.9995C154.497 20.9995 154.497 20.9995 154.497 20.9995C154.497 20.9995 154.497 20.9995 154.497 20.9995C154.497 20.9995 154.497 20.9995 154.497 20.9995C154.497 20.9995 154.497 20.9995 154.497 20.9995C154.497 20.9995 154.497 20.9995 154.497 20.9995C154.497 20.9995 154.497 20.9995 154.497 20.9995C154.497 20.9995 154.497 20.9995 154.497 20.9995C154.497 20.9995 154.497 20.9995 154.497 20.9995C154.497 20.9995 154.497 20.9995 154.497 20.9995C154.497 20.9995 154.497 20.9995 154.497 20.9995C154.497 20.9995 154.497 20.9995 154.497 20.9995C154.497 20.9995 154.497 20.9995 154.497 20.9995C154.497 20.9995 154.497 20.9995 154.497 20.9995C154.497 20.9995 154.497 20.9995 154.497 20.9995C154.497 20.9995 154.497 20.9995 154.497 20.9995C154.497 20.9995 154.497 20.9995 154.497 20.9995C154.497 20.9995 154.497 20.9995 154.497 20.9995C154.497 20.9995 154.497 20.9995 154.497 20.9995C154.497 20.9995 154.497 20.9995 154.497 20.9995C154.497 20.9995 154.497 20.9995 154.497 20.9995C154.497 20.9995 154.497 20.9995 154.497 20.9995C154.497 20.9995 154.497 20.9995 154.497 20.9995C154.497 20.9995 154.497 20.9995 154.497 20.9995C154.497 20.9995 154.497 20.9995 154.497 20.9995C154.497 20.9995 154.497 20.9995 154.497 20.9995C154.497 20.9995 154.497 20.9995 154.497 20.9995C154.497 20.9995 154.497 20.9995 154.497 20.9995C154.497 20.9995 154.497 20.9995 154.497 20.9995C154.497 20.9995 154.497 20.9995 154.497 20.9995C154.497 20.9995 154.497 20.9995 154.497 20.9995C154.497 20.9995 154.497 20.9995 154.497 20.9995C154.497 20.9995 154.497 20.9995 154.497 20.9995C154.497 20.9995 154.497 20.9995 154.497 20.9995C154.497 20.9995 154.497 20.9995 154.497 20.9995C154.497 20.9995 154.497 20.9995 154.497 20.9995C154.497 20.9995 154.497 20.9995 154.497 20.9995C154.497 20.9995 154.497 20.9995 154.497 20.9995C154.497 20.9995 154.497 20.9995 154.497 20.9995C154.497 20.9995 154.497 20.9995 154.497 20.9995C154.497 20.9995 154.497 20.9995 154.497 20.9995C154.497 20.9995 154.497 20.9995 154.497 20.9995C154.497 20.9995 154.497 20.9995 154.497 20.9995C154.497 20.9995 154.497 20.9995 154.497 20.9995C154.497 20.9995 154.497 20.9995 154.497 20.9995C154.497 20.9995 154.497 20.9995 154.497 20.9995C154.497 20.9995 154.497 20.9995 154.497 20.9995C154.497 20.9995 154.497 20.9995 154.497 20.9995C154.497 20.9995 154.497 20.9995 154.497 20.9995C154.497 20.9995 154.497 20.9995 154.497 20.9995C154.497 20.9995 154.497 20.9995 154.497 20.9995C154.497 20.9995 154.497 20.9995 154.497 20.9995C154.497 20.9995 154.497 20.9995 154.497 20.9995C154.497 20.9995 154.497 20.9995 154.497 20.9995C154.497 20.9995 154.497 20.9995 154.497 20.9995C154.497 20.9995 154.497 20.9995 154.497 20.9995C154.497 20.9995 154.497 20.9995 154.497 20.9995C154.497 20.9995 154.497 20.9995 154.497 20.9995C154.497 20.9995 154.497 20.9995 154.497 20.9995C154.497 20.9995 154.497 20.9995 154.497 20.9995C154.497 20.9995 154.497 20.9995 154.497 20.9995C154.497 20.9995 154.497 20.9995 154.497 20.9995C154.497 20.9995 154.497 20.9995 154.497 20.9995C154.497 20.9995 154.497 20.9995 154.497 20.9995C154.497 20.9995 154.497 20.9995 154.497 20.9995C154.497 20.9995 154.497 20.9995 154.497 20.9995C154.497 20.9995 154.497 20.9995 154.497 20.9995C154.497 20.9995 154.497 20.9995 154.497 20.9995C154.497 20.9995 154.497 20.9995 154.497 20.9995C154.497 20.9995 154.497 20.9995 154.497 20.9995C154.497 20.9995 154.497 20.9995 154.497 20.9995C154.497 20.9995 154.497 20.9995 154.497 20.9995C154.497 20.9995 154.497 20.9995 154.497 20.9995C154.497 20.9995 154.497 20.9995 154.497 20.9995C154.497 20.9995 154.497 20.9995 154.497 20.9995C154.497 20.9995 154.497 20.9995 154.497 20.9995C154.497 20.9995 154.497 20.9995 154.497 20.9995C154.497 20.9995 154.497 20.9995 154.497 20.9995C154.497 20.9995 154.497 20.9995 154.497 20.9995C154.497 20.9995 154.497 20.9995 154.497 20.9995C154.497 20.9995 154.497 20.9995 154.497 20.9995C154.497 20.9995 154.497 20.9995 154.497 20.9995C154.497 20.9995 154.497 20.9995 154.497 20.9995C154.497 20.9995 154.497 20.9995 154.497 20.9995C154.497 20.9995 154.497 20.9995 154.497 20.9995C154.497 20.9995 154.497 20.9995 154.497 20.9995C154.497 20.9995 154.497 20.9995 154.497 20.9995C154.497 20.9995 154.497 20.9995 154.497 20.9995C154.497 20.9995 154.497 20.9995 154.497 20.9995C154.497 20.9995 154.497 20.9995 154.497 20.9995C154.497 20.9995 154.497 20.9995 154.497 20.9995C154.497 20.9995 154.497 20.9995 154.497 20.9995C154.497 20.9995 154.497 20.9995 154.497 20.9995C154.497 20.9995 154.497 20.9995 154.497 20.9995C154.497 20.9995 154.497 20.9995 154.497 20.9995C154.497 20.9995 154.497 20.9995 154.497 20.9995C154.497 20.9995 154.497 20.9995 154.497 20.9995C154.497 20.9995 154.497 20.9995 154.497 20.9995C154.497 20.9995 154.497 20.9995 154.497 20.9995C154.497 20.9995 154.497 20.9995 154.497 20.9995C154.497 20.9995 154.497 20.9995 154.497 20.9995C154.497 20.9995 154.497 20.9995 154.497 20.9995C154.497 20.9995 154.497 20.9995 154.497 20.9995C154.497 20.9995 154.497 20.9995 154.497 20.9995C154.497 20.9995 154.497 20.9995 154.497 20.9995C154.497 20.9995 154.497 20.9995 154.497 20.9995C154.497 20.9995 154.497 20.9995 154.497 20.9995C154.497 20.9995 154.497 20.9995 154.497 20.9995C154.497 20.9995 154.497 20.9995 154.497 20.9995C154.497 20.9995 154.497 20.9995 154.497 20.9995C154.497 20.9995 154.497 20.9995 154.497 20.9995C154.497 20.9995 154.497 20.9995 154.497 20.9995C154.497 20.9995 154.497 20.9995 154.497 20.9995C154.497 20.9995 154.497 20.9995 154.497 20.9995C154.497 20.9995 154.497 20.9995 154.497 20.9995C154.497 20.9995 154.497 20.9995 154.497 20.9995C154.497 20.9995 154.497 20.9995 154.496 20.9995C154.496 20.9995 154.496 20.9995 154.496 20.9995C154.496 20.9995 154.496 20.9995 154.496 20.9995C154.496 20.9995 154.496 20.9995 154.496 20.9995C154.496 20.9995 154.496 20.9995 154.496 20.9995C154.496 20.9995 154.496 20.9995 154.496 20.9995C154.496 20.9995 154.496 20.9995 154.496 20.9995C154.496 20.9995 154.496 20.9995 154.496 20.9995C154.496 20.9995 154.496 20.9995 154.496 20.9995C154.496 20.9995 154.496 20.9995 154.496 20.9995C154.496 20.9995 154.496 20.9995 154.496 20.9995C154.496 20.9995 154.496 20.9995 154.496 20.9995C154.496 20.9995 154.496 20.9995 154.496 20.9995C154.496 20.9995 154.496 20.9995 154.496 20.9995C154.496 20.9995 154.496 20.9995 154.496 20.9995C154.496 20.9995 154.496 20.9995 154.496 20.9995C154.496 20.9995 154.496 20.9995 154.496 20.9995C154.496 20.9995 154.496 20.9995 154.496 20.9995C154.496 20.9995 154.496 20.9995 154.496 20.9995C154.496 20.9995 154.496 20.9995 154.496 20.9995C154.496 20.9995 154.496 20.9995 154.496 20.9995C154.496 20.9995 154.496 20.9995 154.496 20.9995C154.496 20.9995 154.496 20.9995 154.496 20.9995C154.496 20.9995 154.496 20.9995 154.496 20.9995C154.496 20.9995 154.496 20.9995 154.496 20.9995C154.496 20.9995 154.496 20.9995 154.496 20.9995C154.496 20.9995 154.496 20.9995 154.496 20.9995C154.496 20.9995 154.496 20.9995 154.496 20.9995C154.496 20.9995 154.496 20.9995 154.496 20.9995C154.496 20.9995 154.496 20.9995 154.496 20.9995C154.496 20.9995 154.496 20.9995 154.496 20.9995C154.496 20.9995 154.496 20.9995 154.496 20.9995C154.496 20.9995 154.496 20.9995 154.496 20.9995C154.496 20.9995 154.496 20.9995 154.496 20.9995C154.496 20.9995 154.496 20.9995 154.496 20.9995C154.496 20.9995 154.496 20.9995 154.496 20.9995V24.9995C154.496 24.9995 154.496 24.9995 154.496 24.9995C154.496 24.9995 154.496 24.9995 154.496 24.9995C154.496 24.9995 154.496 24.9995 154.496 24.9995C154.496 24.9995 154.496 24.9995 154.496 24.9995C154.496 24.9995 154.496 24.9995 154.496 24.9995C154.496 24.9995 154.496 24.9995 154.496 24.9995C154.496 24.9995 154.496 24.9995 154.496 24.9995C154.496 24.9995 154.496 24.9995 154.496 24.9995C154.496 24.9995 154.496 24.9995 154.496 24.9995C154.496 24.9995 154.496 24.9995 154.496 24.9995C154.496 24.9995 154.496 24.9995 154.496 24.9995C154.496 24.9995 154.496 24.9995 154.496 24.9995C154.496 24.9995 154.496 24.9995 154.496 24.9995C154.496 24.9995 154.496 24.9995 154.496 24.9995C154.496 24.9995 154.496 24.9995 154.496 24.9995C154.496 24.9995 154.496 24.9995 154.496 24.9995C154.496 24.9995 154.496 24.9995 154.496 24.9995C154.496 24.9995 154.496 24.9995 154.496 24.9995C154.496 24.9995 154.496 24.9995 154.496 24.9995C154.496 24.9995 154.496 24.9995 154.496 24.9995C154.496 24.9995 154.496 24.9995 154.496 24.9995C154.496 24.9995 154.496 24.9995 154.496 24.9995C154.496 24.9995 154.496 24.9995 154.496 24.9995C154.496 24.9995 154.496 24.9995 154.496 24.9995C154.496 24.9995 154.496 24.9995 154.496 24.9995C154.496 24.9995 154.496 24.9995 154.496 24.9995C154.496 24.9995 154.496 24.9995 154.496 24.9995C154.496 24.9995 154.496 24.9995 154.496 24.9995C154.496 24.9995 154.496 24.9995 154.496 24.9995C154.496 24.9995 154.496 24.9995 154.496 24.9995C154.496 24.9995 154.496 24.9995 154.496 24.9995C154.496 24.9995 154.496 24.9995 154.496 24.9995C154.496 24.9995 154.496 24.9995 154.496 24.9995C154.496 24.9995 154.496 24.9995 154.496 24.9995C154.496 24.9995 154.496 24.9995 154.496 24.9995C154.497 24.9995 154.497 24.9995 154.497 24.9995C154.497 24.9995 154.497 24.9995 154.497 24.9995C154.497 24.9995 154.497 24.9995 154.497 24.9995C154.497 24.9995 154.497 24.9995 154.497 24.9995C154.497 24.9995 154.497 24.9995 154.497 24.9995C154.497 24.9995 154.497 24.9995 154.497 24.9995C154.497 24.9995 154.497 24.9995 154.497 24.9995C154.497 24.9995 154.497 24.9995 154.497 24.9995C154.497 24.9995 154.497 24.9995 154.497 24.9995C154.497 24.9995 154.497 24.9995 154.497 24.9995C154.497 24.9995 154.497 24.9995 154.497 24.9995C154.497 24.9995 154.497 24.9995 154.497 24.9995C154.497 24.9995 154.497 24.9995 154.497 24.9995C154.497 24.9995 154.497 24.9995 154.497 24.9995C154.497 24.9995 154.497 24.9995 154.497 24.9995C154.497 24.9995 154.497 24.9995 154.497 24.9995C154.497 24.9995 154.497 24.9995 154.497 24.9995C154.497 24.9995 154.497 24.9995 154.497 24.9995C154.497 24.9995 154.497 24.9995 154.497 24.9995C154.497 24.9995 154.497 24.9995 154.497 24.9995C154.497 24.9995 154.497 24.9995 154.497 24.9995C154.497 24.9995 154.497 24.9995 154.497 24.9995C154.497 24.9995 154.497 24.9995 154.497 24.9995C154.497 24.9995 154.497 24.9995 154.497 24.9995C154.497 24.9995 154.497 24.9995 154.497 24.9995C154.497 24.9995 154.497 24.9995 154.497 24.9995C154.497 24.9995 154.497 24.9995 154.497 24.9995C154.497 24.9995 154.497 24.9995 154.497 24.9995C154.497 24.9995 154.497 24.9995 154.497 24.9995C154.497 24.9995 154.497 24.9995 154.497 24.9995C154.497 24.9995 154.497 24.9995 154.497 24.9995C154.497 24.9995 154.497 24.9995 154.497 24.9995C154.497 24.9995 154.497 24.9995 154.497 24.9995C154.497 24.9995 154.497 24.9995 154.497 24.9995C154.497 24.9995 154.497 24.9995 154.497 24.9995C154.497 24.9995 154.497 24.9995 154.497 24.9995C154.497 24.9995 154.497 24.9995 154.497 24.9995C154.497 24.9995 154.497 24.9995 154.497 24.9995C154.497 24.9995 154.497 24.9995 154.497 24.9995C154.497 24.9995 154.497 24.9995 154.497 24.9995C154.497 24.9995 154.497 24.9995 154.497 24.9995C154.497 24.9995 154.497 24.9995 154.497 24.9995C154.497 24.9995 154.497 24.9995 154.497 24.9995C154.497 24.9995 154.497 24.9995 154.497 24.9995C154.497 24.9995 154.497 24.9995 154.497 24.9995C154.497 24.9995 154.497 24.9995 154.497 24.9995C154.497 24.9995 154.497 24.9995 154.497 24.9995C154.497 24.9995 154.497 24.9995 154.497 24.9995C154.497 24.9995 154.497 24.9995 154.497 24.9995C154.497 24.9995 154.497 24.9995 154.497 24.9995C154.497 24.9995 154.497 24.9995 154.497 24.9995C154.497 24.9995 154.497 24.9995 154.497 24.9995C154.497 24.9995 154.497 24.9995 154.497 24.9995C154.497 24.9995 154.497 24.9995 154.497 24.9995C154.497 24.9995 154.497 24.9995 154.497 24.9995C154.497 24.9995 154.497 24.9995 154.497 24.9995C154.497 24.9995 154.497 24.9995 154.497 24.9995C154.497 24.9995 154.497 24.9995 154.497 24.9995C154.497 24.9995 154.497 24.9995 154.497 24.9995C154.497 24.9995 154.497 24.9995 154.497 24.9995C154.497 24.9995 154.497 24.9995 154.497 24.9995C154.497 24.9995 154.497 24.9995 154.497 24.9995C154.497 24.9995 154.497 24.9995 154.497 24.9995C154.497 24.9995 154.497 24.9995 154.497 24.9995C154.497 24.9995 154.497 24.9995 154.497 24.9995C154.497 24.9995 154.497 24.9995 154.497 24.9995C154.497 24.9995 154.497 24.9995 154.497 24.9995C154.497 24.9995 154.497 24.9995 154.497 24.9995C154.497 24.9995 154.497 24.9995 154.497 24.9995C154.497 24.9995 154.497 24.9995 154.497 24.9995C154.497 24.9995 154.497 24.9995 154.497 24.9995C154.497 24.9995 154.497 24.9995 154.497 24.9995C154.497 24.9995 154.497 24.9995 154.497 24.9995C154.497 24.9995 154.497 24.9995 154.497 24.9995C154.497 24.9995 154.497 24.9995 154.497 24.9995C154.497 24.9995 154.497 24.9995 154.497 24.9995C154.497 24.9995 154.497 24.9995 154.497 24.9995C154.497 24.9995 154.497 24.9995 154.497 24.9995C154.497 24.9995 154.497 24.9995 154.497 24.9995C154.497 24.9995 154.497 24.9995 154.497 24.9995C154.497 24.9995 154.497 24.9995 154.497 24.9995C154.497 24.9995 154.497 24.9995 154.497 24.9995C154.497 24.9995 154.497 24.9995 154.497 24.9995C154.497 24.9995 154.497 24.9995 154.497 24.9995C154.497 24.9995 154.497 24.9995 154.497 24.9995C154.497 24.9995 154.497 24.9995 154.497 24.9995C154.497 24.9995 154.497 24.9995 154.497 24.9995C154.497 24.9995 154.497 24.9995 154.497 24.9995C154.497 24.9995 154.497 24.9995 154.497 24.9995C154.497 24.9995 154.497 24.9995 154.497 24.9995C154.497 24.9995 154.497 24.9995 154.497 24.9995C154.497 24.9995 154.497 24.9995 154.497 24.9995C154.497 24.9995 154.497 24.9995 154.497 24.9995C154.497 24.9995 154.497 24.9995 154.497 24.9995C154.497 24.9995 154.497 24.9995 154.497 24.9995C154.497 24.9995 154.497 24.9995 154.497 24.9995C154.497 24.9995 154.497 24.9995 154.497 24.9995C154.497 24.9995 154.497 24.9995 154.497 24.9995C154.497 24.9995 154.497 24.9995 154.497 24.9995C154.497 24.9995 154.497 24.9995 154.497 24.9995C154.497 24.9995 154.497 24.9995 154.497 24.9995C154.497 24.9995 154.497 24.9995 154.497 24.9995C154.497 24.9995 154.497 24.9995 154.497 24.9995C154.497 24.9995 154.497 24.9995 154.497 24.9995C154.497 24.9995 154.497 24.9995 154.497 24.9995C154.497 24.9995 154.497 24.9995 154.497 24.9995C154.497 24.9995 154.497 24.9995 154.497 24.9995C154.497 24.9995 154.497 24.9995 154.497 24.9995C154.497 24.9995 154.497 24.9995 154.497 24.9995C154.497 24.9995 154.497 24.9995 154.497 24.9995C154.497 24.9995 154.497 24.9995 154.497 24.9995C154.497 24.9995 154.497 24.9995 154.497 24.9995C154.497 24.9995 154.497 24.9995 154.497 24.9995C154.497 24.9995 154.497 24.9995 154.497 24.9995C154.497 24.9995 154.497 24.9995 154.497 24.9995C154.497 24.9995 154.497 24.9995 154.497 24.9995C154.497 24.9995 154.497 24.9995 154.497 24.9995C154.497 24.9995 154.497 24.9995 154.497 24.9995C154.497 24.9995 154.497 24.9995 154.497 24.9995C154.497 24.9995 154.497 24.9995 154.497 24.9995C154.497 24.9995 154.497 24.9995 154.497 24.9995C154.497 24.9995 154.497 24.9995 154.497 24.9995C154.497 24.9995 154.497 24.9995 154.497 24.9995C154.497 24.9995 154.497 24.9995 154.497 24.9995C154.497 24.9995 154.497 24.9995 154.497 24.9995C154.497 24.9995 154.497 24.9995 154.497 24.9995C154.497 24.9995 154.497 24.9995 154.497 24.9995C154.497 24.9995 154.497 24.9995 154.497 24.9995C154.497 24.9995 154.497 24.9995 154.497 24.9995C154.497 24.9995 154.497 24.9995 154.497 24.9995C154.497 24.9995 154.497 24.9995 154.497 24.9995C154.497 24.9995 154.497 24.9995 154.497 24.9995C154.497 24.9995 154.497 24.9995 154.497 24.9995C154.497 24.9995 154.497 24.9995 154.497 24.9995C154.497 24.9995 154.497 24.9995 154.497 24.9995C154.497 24.9995 154.497 24.9995 154.497 24.9995C154.497 24.9995 154.497 24.9995 154.497 24.9995C154.497 24.9995 154.497 24.9995 154.497 24.9995C154.497 24.9995 154.497 24.9995 154.497 24.9995C154.497 24.9995 154.497 24.9995 154.497 24.9995C154.497 24.9995 154.497 24.9995 154.497 24.9995C154.497 24.9995 154.497 24.9995 154.497 24.9995C154.497 24.9995 154.497 24.9995 154.497 24.9995C154.497 24.9995 154.497 24.9995 154.497 24.9995C154.497 24.9995 154.497 24.9995 154.497 24.9995C154.497 24.9995 154.497 24.9995 154.497 24.9995C154.497 24.9995 154.497 24.9995 154.497 24.9995C154.497 24.9995 154.497 24.9995 154.497 24.9995C154.497 24.9995 154.497 24.9995 154.497 24.9995C154.497 24.9995 154.497 24.9995 154.497 24.9995C154.497 24.9995 154.497 24.9995 154.497 24.9995C154.497 24.9995 154.497 24.9995 154.497 24.9995C154.497 24.9995 154.497 24.9995 154.497 24.9995C154.497 24.9995 154.497 24.9995 154.497 24.9995C154.497 24.9995 154.497 24.9995 154.497 24.9995C154.497 24.9995 154.497 24.9995 154.497 24.9995C154.497 24.9995 154.497 24.9995 154.497 24.9995C154.497 24.9995 154.497 24.9995 154.497 24.9995C154.497 24.9995 154.497 24.9995 154.497 24.9995C154.497 24.9995 154.497 24.9995 154.497 24.9995C154.497 24.9995 154.497 24.9995 154.497 24.9995C154.497 24.9995 154.497 24.9995 154.497 24.9995C154.497 24.9995 154.497 24.9995 154.497 24.9995C154.497 24.9995 154.497 24.9995 154.497 24.9995C154.497 24.9995 154.497 24.9995 154.497 24.9995C154.497 24.9995 154.497 24.9995 154.497 24.9995C154.497 24.9995 154.497 24.9995 154.497 24.9995C154.497 24.9995 154.497 24.9995 154.497 24.9995C154.497 24.9995 154.497 24.9995 154.497 24.9995C154.497 24.9995 154.497 24.9995 154.497 24.9995C154.497 24.9995 154.497 24.9995 154.497 24.9995C154.497 24.9995 154.497 24.9995 154.497 24.9995C154.497 24.9995 154.497 24.9995 154.497 24.9995C154.497 24.9995 154.497 24.9995 154.497 24.9995C154.497 24.9995 154.497 24.9995 154.497 24.9995C154.497 24.9995 154.497 24.9995 154.497 24.9995C154.497 24.9995 154.497 24.9995 154.497 24.9995C154.497 24.9995 154.497 24.9995 154.497 24.9995C154.497 24.9995 154.497 24.9995 154.497 24.9995C154.497 24.9995 154.497 24.9995 154.497 24.9995C154.497 24.9995 154.497 24.9995 154.497 24.9995C154.497 24.9995 154.497 24.9995 154.497 24.9995C154.497 24.9995 154.497 24.9995 154.497 24.9995C154.497 24.9995 154.497 24.9995 154.498 24.9995C154.498 24.9995 154.498 24.9995 154.498 24.9995C154.498 24.9995 154.498 24.9995 154.498 24.9995C154.498 24.9995 154.498 24.9995 154.498 24.9995C154.498 24.9995 154.498 24.9995 154.498 24.9995C154.498 24.9995 154.498 24.9995 154.498 24.9995C154.498 24.9995 154.498 24.9995 154.498 24.9995C154.498 24.9995 154.498 24.9995 154.498 24.9995C154.498 24.9995 154.498 24.9995 154.498 24.9995C154.498 24.9995 154.498 24.9995 154.498 24.9995C154.498 24.9995 154.498 24.9995 154.498 24.9995C154.498 24.9995 154.498 24.9995 154.498 24.9995C154.498 24.9995 154.498 24.9995 154.498 24.9995C154.498 24.9995 154.498 24.9995 154.498 24.9995C154.498 24.9995 154.498 24.9995 154.498 24.9995C154.498 24.9995 154.498 24.9995 154.498 24.9995C154.498 24.9995 154.498 24.9995 154.498 24.9995C154.498 24.9995 154.498 24.9995 154.498 24.9995C154.498 24.9995 154.498 24.9995 154.498 24.9995C154.498 24.9995 154.498 24.9995 154.498 24.9995C154.498 24.9995 154.498 24.9995 154.498 24.9995C154.498 24.9995 154.498 24.9995 154.498 24.9995C154.498 24.9995 154.498 24.9995 154.498 24.9995C154.498 24.9995 154.498 24.9995 154.498 24.9995C154.498 24.9995 154.498 24.9995 154.498 24.9995C154.498 24.9995 154.498 24.9995 154.498 24.9995C154.498 24.9995 154.498 24.9995 154.498 24.9995C154.498 24.9995 154.498 24.9995 154.498 24.9995C154.498 24.9995 154.498 24.9995 154.498 24.9995C154.498 24.9995 154.498 24.9995 154.498 24.9995C154.498 24.9995 154.498 24.9995 154.498 24.9995C154.498 24.9995 154.498 24.9995 154.498 24.9995C154.498 24.9995 154.498 24.9995 154.498 24.9995C154.498 24.9995 154.498 24.9995 154.498 24.9995C154.498 24.9995 154.498 24.9995 154.498 24.9995C154.498 24.9995 154.498 24.9995 154.498 24.9995C154.498 24.9995 154.498 24.9995 154.498 24.9995C154.498 24.9995 154.498 24.9995 154.498 24.9995C154.498 24.9995 154.498 24.9995 154.498 24.9995C154.498 24.9995 154.498 24.9995 154.498 24.9995C154.498 24.9995 154.498 24.9995 154.498 24.9995C154.498 24.9995 154.498 24.9995 154.498 24.9995C154.498 24.9995 154.498 24.9995 154.498 24.9995C154.498 24.9995 154.498 24.9995 154.498 24.9995C154.498 24.9995 154.498 24.9995 154.498 24.9995C154.498 24.9995 154.498 24.9995 154.498 24.9995C154.498 24.9995 154.498 24.9995 154.498 24.9995C154.498 24.9995 154.498 24.9995 154.498 24.9995C154.498 24.9995 154.498 24.9995 154.498 24.9995C154.498 24.9995 154.498 24.9995 154.498 24.9995C154.498 24.9995 154.498 24.9995 154.498 24.9995C154.498 24.9995 154.498 24.9995 154.498 24.9995C154.498 24.9995 154.498 24.9995 154.498 24.9995C154.498 24.9995 154.498 24.9995 154.498 24.9995C154.498 24.9995 154.498 24.9995 154.498 24.9995C154.498 24.9995 154.498 24.9995 154.498 24.9995C154.498 24.9995 154.498 24.9995 154.498 24.9995C154.498 24.9995 154.498 24.9995 154.498 24.9995C154.498 24.9995 154.498 24.9995 154.498 24.9995C154.498 24.9995 154.498 24.9995 154.498 24.9995C154.498 24.9995 154.498 24.9995 154.498 24.9995C154.498 24.9995 154.498 24.9995 154.498 24.9995C154.498 24.9995 154.498 24.9995 154.498 24.9995C154.498 24.9995 154.498 24.9995 154.498 24.9995C154.498 24.9995 154.498 24.9995 154.498 24.9995C154.498 24.9995 154.498 24.9995 154.498 24.9995C154.498 24.9995 154.498 24.9995 154.498 24.9995C154.498 24.9995 154.498 24.9995 154.498 24.9995C154.498 24.9995 154.498 24.9995 154.498 24.9995C154.498 24.9995 154.498 24.9995 154.498 24.9995C154.498 24.9995 154.498 24.9995 154.498 24.9995C154.498 24.9995 154.498 24.9995 154.498 24.9995C154.498 24.9995 154.498 24.9995 154.498 24.9995C154.498 24.9995 154.498 24.9995 154.498 24.9995C154.498 24.9995 154.498 24.9995 154.498 24.9995C154.498 24.9995 154.498 24.9995 154.498 24.9995C154.498 24.9995 154.498 24.9995 154.498 24.9995C154.498 24.9995 154.498 24.9995 154.498 24.9995C154.498 24.9995 154.498 24.9995 154.498 24.9995C154.498 24.9995 154.498 24.9995 154.498 24.9995C154.498 24.9995 154.498 24.9995 154.498 24.9995C154.498 24.9995 154.498 24.9995 154.498 24.9995C154.498 24.9995 154.498 24.9995 154.498 24.9995C154.498 24.9995 154.498 24.9995 154.498 24.9995C154.498 24.9995 154.498 24.9995 154.498 24.9995C154.498 24.9995 154.498 24.9995 154.498 24.9995C154.498 24.9995 154.498 24.9995 154.498 24.9995C154.498 24.9995 154.498 24.9995 154.498 24.9995C154.498 24.9995 154.498 24.9995 154.498 24.9995C154.498 24.9995 154.498 24.9995 154.498 24.9995C154.498 24.9995 154.498 24.9995 154.498 24.9995C154.498 24.9995 154.498 24.9995 154.498 24.9995C154.498 24.9995 154.498 24.9995 154.498 24.9995C154.498 24.9995 154.498 24.9995 154.498 24.9995C154.498 24.9995 154.498 24.9995 154.498 24.9995C154.498 24.9995 154.498 24.9995 154.498 24.9995C154.498 24.9995 154.498 24.9995 154.498 24.9995C154.498 24.9995 154.498 24.9995 154.498 24.9995C154.498 24.9995 154.498 24.9995 154.498 24.9995C154.498 24.9995 154.498 24.9995 154.498 24.9995C154.498 24.9995 154.498 24.9995 154.498 24.9995C154.498 24.9995 154.498 24.9995 154.498 24.9995C154.498 24.9995 154.498 24.9995 154.498 24.9995C154.498 24.9995 154.498 24.9995 154.498 24.9995C154.498 24.9995 154.498 24.9995 154.498 24.9995C154.498 24.9995 154.498 24.9995 154.498 24.9995C154.498 24.9995 154.498 24.9995 154.498 24.9995C154.498 24.9995 154.498 24.9995 154.498 24.9995C154.498 24.9995 154.498 24.9995 154.498 24.9995C154.498 24.9995 154.498 24.9995 154.498 24.9995C154.498 24.9995 154.498 24.9995 154.498 24.9995C154.498 24.9995 154.498 24.9995 154.498 24.9995C154.498 24.9995 154.498 24.9995 154.498 24.9995C154.498 24.9995 154.498 24.9995 154.498 24.9995C154.498 24.9995 154.498 24.9995 154.498 24.9995C154.498 24.9995 154.498 24.9995 154.498 24.9995C154.498 24.9995 154.498 24.9995 154.498 24.9995C154.498 24.9995 154.498 24.9995 154.498 24.9995C154.498 24.9995 154.498 24.9995 154.498 24.9995C154.498 24.9995 154.498 24.9995 154.498 24.9995C154.498 24.9995 154.498 24.9995 154.498 24.9995C154.498 24.9995 154.498 24.9995 154.498 24.9995C154.498 24.9995 154.498 24.9995 154.498 24.9995C154.498 24.9995 154.498 24.9995 154.498 24.9995C154.498 24.9995 154.498 24.9995 154.498 24.9995C154.498 24.9995 154.498 24.9995 154.498 24.9995C154.498 24.9995 154.498 24.9995 154.498 24.9995C154.498 24.9995 154.498 24.9995 154.498 24.9995C154.498 24.9995 154.498 24.9995 154.498 24.9995C154.498 24.9995 154.498 24.9995 154.498 24.9995C154.498 24.9995 154.498 24.9995 154.498 24.9995C154.498 24.9995 154.498 24.9995 154.498 24.9995C154.498 24.9995 154.498 24.9995 154.498 24.9995C154.498 24.9995 154.498 24.9995 154.498 24.9995C154.498 24.9995 154.498 24.9995 154.498 24.9995C154.498 24.9995 154.498 24.9995 154.498 24.9995C154.498 24.9995 154.498 24.9995 154.498 24.9995C154.498 24.9995 154.498 24.9995 154.498 24.9995C154.498 24.9995 154.498 24.9995 154.498 24.9995C154.498 24.9995 154.498 24.9995 154.498 24.9995C154.498 24.9995 154.498 24.9995 154.498 24.9995C154.498 24.9995 154.498 24.9995 154.498 24.9995C154.498 24.9995 154.498 24.9995 154.498 24.9995C154.498 24.9995 154.498 24.9995 154.498 24.9995C154.498 24.9995 154.498 24.9995 154.498 24.9995C154.498 24.9995 154.498 24.9995 154.498 24.9995C154.498 24.9995 154.498 24.9995 154.498 24.9995C154.498 24.9995 154.498 24.9995 154.498 24.9995C154.498 24.9995 154.498 24.9995 154.498 24.9995C154.498 24.9995 154.498 24.9995 154.498 24.9995C154.498 24.9995 154.498 24.9995 154.498 24.9995C154.498 24.9995 154.498 24.9995 154.498 24.9995C154.498 24.9995 154.498 24.9995 154.498 24.9995C154.498 24.9995 154.498 24.9995 154.498 24.9995C154.498 24.9995 154.498 24.9995 154.498 24.9995C154.498 24.9995 154.498 24.9995 154.498 24.9995C154.498 24.9995 154.498 24.9995 154.498 24.9995C154.498 24.9995 154.498 24.9995 154.498 24.9995C154.498 24.9995 154.498 24.9995 154.498 24.9995C154.498 24.9995 154.498 24.9995 154.498 24.9995C154.498 24.9995 154.498 24.9995 154.498 24.9995C154.498 24.9995 154.498 24.9995 154.498 24.9995C154.498 24.9995 154.498 24.9995 154.498 24.9995C154.498 24.9995 154.498 24.9995 154.498 24.9995C154.498 24.9995 154.498 24.9995 154.498 24.9995C154.498 24.9995 154.498 24.9995 154.498 24.9995C154.498 24.9995 154.498 24.9995 154.498 24.9995C154.498 24.9995 154.498 24.9995 154.498 24.9995C154.498 24.9995 154.498 24.9995 154.498 24.9995C154.498 24.9995 154.498 24.9995 154.498 24.9995C154.498 24.9995 154.498 24.9995 154.498 24.9995C154.498 24.9995 154.498 24.9995 154.498 24.9995C154.498 24.9995 154.498 24.9995 154.498 24.9995C154.498 24.9995 154.498 24.9995 154.498 24.9995C154.498 24.9995 154.498 24.9995 154.498 24.9995C154.498 24.9995 154.498 24.9995 154.498 24.9995C154.498 24.9995 154.498 24.9995 154.498 24.9995C154.498 24.9995 154.498 24.9995 154.498 24.9995C154.498 24.9995 154.498 24.9995 154.498 24.9995C154.498 24.9995 154.498 24.9995 154.498 24.9995C154.498 24.9995 154.498 24.9995 154.498 24.9995C154.498 24.9995 154.498 24.9995 154.498 24.9995C154.498 24.9995 154.498 24.9995 154.498 24.9995C154.498 24.9995 154.498 24.9995 154.498 24.9995C154.499 24.9995 154.499 24.9995 154.499 24.9995C154.499 24.9995 154.499 24.9995 154.499 24.9995C154.499 24.9995 154.499 24.9995 154.499 24.9995C154.499 24.9995 154.499 24.9995 154.499 24.9995C154.499 24.9995 154.499 24.9995 154.499 24.9995C154.499 24.9995 154.499 24.9995 154.499 24.9995C154.499 24.9995 154.499 24.9995 154.499 24.9995C154.499 24.9995 154.499 24.9995 154.499 24.9995C154.499 24.9995 154.499 24.9995 154.499 24.9995C154.499 24.9995 154.499 24.9995 154.499 24.9995C154.499 24.9995 154.499 24.9995 154.499 24.9995C154.499 24.9995 154.499 24.9995 154.499 24.9995C154.499 24.9995 154.499 24.9995 154.499 24.9995C154.499 24.9995 154.499 24.9995 154.499 24.9995C154.499 24.9995 154.499 24.9995 154.499 24.9995C154.499 24.9995 154.499 24.9995 154.499 24.9995C154.499 24.9995 154.499 24.9995 154.499 24.9995C154.499 24.9995 154.499 24.9995 154.499 24.9995C154.499 24.9995 154.499 24.9995 154.499 24.9995C154.499 24.9995 154.499 24.9995 154.499 24.9995C154.499 24.9995 154.499 24.9995 154.499 24.9995C154.499 24.9995 154.499 24.9995 154.499 24.9995C154.499 24.9995 154.499 24.9995 154.499 24.9995C154.499 24.9995 154.499 24.9995 154.499 24.9995C154.499 24.9995 154.499 24.9995 154.499 24.9995C154.499 24.9995 154.499 24.9995 154.499 24.9995C154.499 24.9995 154.499 24.9995 154.499 24.9995C154.499 24.9995 154.499 24.9995 154.499 24.9995C154.499 24.9995 154.499 24.9995 154.499 24.9995C154.499 24.9995 154.499 24.9995 154.499 24.9995C154.499 24.9995 154.499 24.9995 154.499 24.9995C154.499 24.9995 154.499 24.9995 154.499 24.9995C154.499 24.9995 154.499 24.9995 154.499 24.9995C154.499 24.9995 154.499 24.9995 154.499 24.9995C154.499 24.9995 154.499 24.9995 154.499 24.9995C154.499 24.9995 154.499 24.9995 154.499 24.9995C154.499 24.9995 154.499 24.9995 154.499 24.9995C154.499 24.9995 154.499 24.9995 154.499 24.9995C154.499 24.9995 154.499 24.9995 154.499 24.9995C154.499 24.9995 154.499 24.9995 154.499 24.9995C154.499 24.9995 154.499 24.9995 154.499 24.9995C154.499 24.9995 154.499 24.9995 154.499 24.9995C154.499 24.9995 154.499 24.9995 154.499 24.9995C154.499 24.9995 154.499 24.9995 154.499 24.9995C154.499 24.9995 154.499 24.9995 154.499 24.9995C154.499 24.9995 154.499 24.9995 154.499 24.9995C154.499 24.9995 154.499 24.9995 154.499 24.9995C154.499 24.9995 154.499 24.9995 154.499 24.9995C154.499 24.9995 154.499 24.9995 154.499 24.9995C154.499 24.9995 154.499 24.9995 154.499 24.9995C154.499 24.9995 154.499 24.9995 154.499 24.9995C154.499 24.9995 154.499 24.9995 154.499 24.9995C154.499 24.9995 154.499 24.9995 154.499 24.9995C154.499 24.9995 154.499 24.9995 154.499 24.9995C154.499 24.9995 154.499 24.9995 154.499 24.9995C154.499 24.9995 154.499 24.9995 154.499 24.9995C154.499 24.9995 154.499 24.9995 154.499 24.9995C154.499 24.9995 154.499 24.9995 154.499 24.9995C154.499 24.9995 154.499 24.9995 154.499 24.9995C154.499 24.9995 154.499 24.9995 154.499 24.9995C154.499 24.9995 154.499 24.9995 154.499 24.9995C154.499 24.9995 154.499 24.9995 154.499 24.9995C154.499 24.9995 154.499 24.9995 154.499 24.9995C154.499 24.9995 154.499 24.9995 154.499 24.9995C154.499 24.9995 154.499 24.9995 154.499 24.9995C154.499 24.9995 154.499 24.9995 154.499 24.9995C154.499 24.9995 154.499 24.9995 154.499 24.9995C154.499 24.9995 154.499 24.9995 154.499 24.9995C154.499 24.9995 154.499 24.9995 154.499 24.9995C154.499 24.9995 154.499 24.9995 154.499 24.9995C154.499 24.9995 154.499 24.9995 154.499 24.9995C154.499 24.9995 154.499 24.9995 154.499 24.9995C154.499 24.9995 154.499 24.9995 154.499 24.9995C154.499 24.9995 154.499 24.9995 154.499 24.9995C154.499 24.9995 154.499 24.9995 154.499 24.9995C154.499 24.9995 154.499 24.9995 154.499 24.9995C154.499 24.9995 154.499 24.9995 154.499 24.9995C154.499 24.9995 154.499 24.9995 154.499 24.9995C154.499 24.9995 154.499 24.9995 154.499 24.9995C154.499 24.9995 154.499 24.9995 154.499 24.9995C154.499 24.9995 154.499 24.9995 154.499 24.9995C154.499 24.9995 154.499 24.9995 154.499 24.9995C154.499 24.9995 154.499 24.9995 154.499 24.9995C154.499 24.9995 154.499 24.9995 154.499 24.9995C154.499 24.9995 154.499 24.9995 154.499 24.9995C154.499 24.9995 154.499 24.9995 154.499 24.9995C154.499 24.9995 154.499 24.9995 154.499 24.9995C154.499 24.9995 154.499 24.9995 154.499 24.9995C154.499 24.9995 154.499 24.9995 154.499 24.9995C154.499 24.9995 154.499 24.9995 154.499 24.9995C154.499 24.9995 154.499 24.9995 154.499 24.9995C154.499 24.9995 154.499 24.9995 154.499 24.9995C154.499 24.9995 154.499 24.9995 154.499 24.9995C154.499 24.9995 154.499 24.9995 154.499 24.9995C154.499 24.9995 154.499 24.9995 154.499 24.9995C154.499 24.9995 154.499 24.9995 154.499 24.9995C154.499 24.9995 154.499 24.9995 154.499 24.9995C154.499 24.9995 154.499 24.9995 154.499 24.9995C154.499 24.9995 154.499 24.9995 154.499 24.9995C154.499 24.9995 154.499 24.9995 154.499 24.9995C154.499 24.9995 154.499 24.9995 154.499 24.9995C154.499 24.9995 154.499 24.9995 154.499 24.9995C154.499 24.9995 154.499 24.9995 154.499 24.9995C154.499 24.9995 154.499 24.9995 154.499 24.9995C154.499 24.9995 154.499 24.9995 154.499 24.9995C154.499 24.9995 154.499 24.9995 154.499 24.9995C154.499 24.9995 154.499 24.9995 154.499 24.9995C154.499 24.9995 154.499 24.9995 154.499 24.9995C154.499 24.9995 154.499 24.9995 154.499 24.9995C154.499 24.9995 154.499 24.9995 154.499 24.9995V20.9995ZM156.499 24.9995V22.9995H152.499V24.9995H156.499ZM152.494 23.0051L152.499 25.0051L156.499 24.9939L156.494 22.9939L152.494 23.0051ZM154.496 20.9995C154.493 20.9995 154.491 20.9995 154.489 20.9995C154.488 20.9995 154.487 20.9995 154.487 20.9995C154.486 20.9995 154.489 20.9995 154.494 20.9995V24.9995C154.496 24.9995 154.499 24.9995 154.5 24.9995C154.502 24.9995 154.503 24.9995 154.503 24.9995C154.504 24.9995 154.501 24.9995 154.496 24.9995V20.9995ZM154.495 20.9995C152.965 21.0008 151.569 21.6731 150.671 22.5711L153.499 25.3995C153.583 25.3155 153.729 25.2082 153.924 25.1244C154.116 25.0422 154.314 24.9997 154.498 24.9995L154.495 20.9995ZM150.67 22.5716L150.66 22.5821L153.489 25.4095L153.5 25.399L150.67 22.5716ZM150.64 22.6018L150.63 22.6124L153.498 25.4004L153.509 25.3898L150.64 22.6018ZM150.629 22.6133C143.456 30.0019 139.908 38.3528 141.161 46.2512L145.112 45.6245C144.124 39.4006 146.848 32.2506 153.499 25.3995L150.629 22.6133ZM141.161 46.2512C142.431 54.2587 148.418 60.4978 157.488 64.0039L158.93 60.2729C150.771 57.1188 146.096 51.8306 145.112 45.6245L141.161 46.2512ZM157.375 63.9561C157.709 64.1095 158.113 64.2529 158.591 64.3326L159.249 60.387C159.184 60.3762 159.12 60.3561 159.043 60.3207L157.375 63.9561ZM158.591 64.3326C159.02 64.404 159.396 64.4001 159.492 64.3996L159.472 60.3996C159.439 60.3998 159.404 60.3999 159.361 60.3977C159.314 60.3955 159.275 60.3914 159.249 60.387L158.591 64.3326ZM159.49 64.3996L159.507 64.3995L159.492 60.3995L159.474 60.3996L159.49 64.3996ZM159.499 64.3995H159.508V60.3995H159.499V64.3995ZM159.527 64.3994L159.536 64.3993L159.499 60.3995L159.49 60.3996L159.527 64.3994ZM159.536 64.3994C203.214 64.0014 304.493 68.6756 398.823 73.2713L399.017 69.276C304.754 64.6836 203.325 60.0002 159.499 60.3995L159.536 64.3994ZM396.921 71.3513L397.279 80.5715L401.276 80.4162L400.918 71.1961L396.921 71.3513ZM155.008 76.2995H154.999V80.2995H155.008V76.2995ZM154.999 76.2995C153.903 76.2995 152.984 76.6348 152.41 76.9218L154.199 80.4995C154.4 80.3993 154.699 80.2995 154.999 80.2995V76.2995ZM152.41 76.9218L152.315 76.9693L154.104 80.547L154.199 80.4995L152.41 76.9218ZM152.131 77.0741L152.041 77.1314L154.199 80.4995L154.288 80.4422L152.131 77.0741ZM152.041 77.1314C148.353 79.4943 145.617 82.3404 143.841 85.7966L147.399 87.6245C148.799 84.8996 150.999 82.5496 154.199 80.4995L152.041 77.1314ZM143.841 85.7966C142.076 89.2318 141.399 92.9989 141.399 96.998L145.399 96.9981C145.399 93.4486 145.999 90.3491 147.399 87.6245L143.841 85.7966ZM145.401 94.9995L143.401 94.9981L143.398 98.9981L145.398 98.9995L145.401 94.9995ZM153.12 78.8154C149.676 81.022 147.208 83.62 145.62 86.7106C144.038 89.7908 143.399 93.2247 143.399 96.9995H147.399C147.399 93.6744 147.961 90.9082 149.178 88.5385C150.39 86.179 152.322 84.0771 155.278 82.1836L153.12 78.8154ZM154.999 78.2995C154.301 78.2995 153.692 78.5171 153.305 78.7107L155.094 82.2884C155.085 82.2927 155.082 82.2935 155.084 82.2928C155.085 82.2925 155.086 82.2922 155.087 82.2919C155.088 82.2916 155.088 82.2915 155.088 82.2915C155.088 82.2916 155.086 82.2919 155.084 82.2925C155.081 82.2931 155.077 82.2939 155.07 82.2949C155.058 82.2967 155.034 82.2995 154.999 82.2995V78.2995ZM399.917 80.4996L155.017 78.2996L154.981 82.2994L399.881 84.4994L399.917 80.4996ZM399.299 80.9995C399.299 80.9036 399.333 80.7985 399.419 80.7042C399.514 80.5998 399.687 80.4995 399.899 80.4995V84.4995C401.979 84.4995 403.299 82.7204 403.299 80.9995H399.299ZM398.901 70.7771L399.301 81.0771L403.298 80.9219L402.898 70.6219L398.901 70.7771ZM399.499 71.2995C399.257 71.2995 399.089 71.1931 399.01 71.1137C398.933 71.0371 398.918 70.9715 398.915 70.9476L402.884 70.4514C402.687 68.8776 401.421 67.2995 399.499 67.2995V71.2995ZM159.517 62.3994C203.344 62.0001 304.969 66.6955 399.402 71.2971L399.596 67.3019C305.23 62.7035 203.454 57.9989 159.481 58.3996L159.517 62.3994ZM158.105 62.0884C158.335 62.2034 158.602 62.3067 158.92 62.3598C159.189 62.4046 159.438 62.3995 159.499 62.3995V58.3995C159.439 58.3995 159.436 58.3992 159.442 58.3994C159.456 58.4 159.507 58.4025 159.578 58.4142C159.653 58.4267 159.724 58.4452 159.788 58.4674C159.847 58.4879 159.885 58.5063 159.894 58.5107L158.105 62.0884ZM152.064 24.0064C145.152 31.1263 142.016 38.8767 143.136 45.9379C144.267 53.0647 149.624 58.8408 158.282 62.1665L159.716 58.4325C151.974 55.4583 147.931 50.6344 147.087 45.3112C146.232 39.9223 148.546 33.3728 154.934 26.7926L152.064 24.0064ZM154.499 22.9995C153.534 22.9995 152.635 23.4355 152.085 23.9853L154.913 26.8137C154.85 26.877 154.8 26.912 154.776 26.9279C154.749 26.9454 154.728 26.9558 154.712 26.9628C154.689 26.9724 154.621 26.9995 154.499 26.9995V22.9995ZM401.104 38.123C383.189 35.3551 330.451 31.5506 277.842 28.453C225.207 25.3539 172.467 22.9493 154.494 22.9995L154.505 26.9995C172.331 26.9497 224.941 29.3452 277.607 32.4461C330.297 35.5485 382.81 39.344 400.494 42.0761L401.104 38.123ZM400.499 38.6995C400.499 38.5465 400.57 38.3902 400.7 38.2806C400.84 38.1629 401.045 38.1054 401.233 38.1471L400.365 42.0519C402.607 42.5501 404.499 40.7819 404.499 38.6995H400.499ZM400.499 31.4995V38.6995H404.499V31.4995H400.499ZM400.967 32.0969C400.869 32.0642 400.72 31.9743 400.61 31.8089C400.508 31.6565 400.499 31.5313 400.499 31.4995H404.499C404.499 30.1617 403.759 28.8114 402.232 28.3021L400.967 32.0969ZM171.259 3.99457C213.839 6.99316 264.234 11.3408 307.535 16.2866C329.187 18.7597 349.047 21.3804 365.263 24.0541C381.532 26.7367 393.974 29.4489 400.89 32.0697L402.308 28.3293C394.974 25.5502 382.166 22.7873 365.914 20.1074C349.607 17.4187 329.674 14.7894 307.989 12.3124C264.615 7.35827 214.16 3.00586 171.54 0.0044553L171.259 3.99457ZM171.299 3.99951H171.399V-0.000485659H171.299V3.99951ZM105.625 5.42904C118.462 1.92818 142.363 1.09597 171.099 3.98945L171.499 0.00957725C142.635 -2.89694 118.136 -2.12915 104.573 1.56999L105.625 5.42904ZM105.432 5.49688L105.732 5.39688L104.467 1.60215L104.167 1.70215L105.432 5.49688ZM51.3656 45.5302C57.0845 38.5815 62.7573 31.6957 70.9248 24.9737C79.0796 18.2621 89.7803 11.6695 105.533 5.46018L104.066 1.73885C87.9724 8.08256 76.8985 14.8767 68.3829 21.8852C59.8801 28.8832 53.9868 36.0508 48.2771 42.9883L51.3656 45.5302ZM2.24361 82.8558C29.701 71.8432 40.5009 58.7313 51.3656 45.5302L48.2771 42.9883C37.5702 55.9978 27.2885 68.5011 0.754597 79.1432L2.24361 82.8558ZM2.41611 81.8944C2.70782 82.1496 2.66836 82.6859 2.24189 82.8565L0.756321 79.1426C-1.67015 80.1132 -2.10961 83.2494 -0.217901 84.9047L2.41611 81.8944ZM10.2991 96.8995C10.2991 94.5902 10.0562 92.2869 8.86908 89.7808C7.69962 87.312 5.68964 84.8041 2.42783 81.9047L-0.229623 84.8943C2.80857 87.5949 4.39859 89.687 5.25413 91.4932C6.09205 93.2621 6.2991 94.9088 6.2991 96.8995H10.2991ZM8.2991 98.8995H10.2991V94.8995H8.2991V98.8995ZM12.2991 96.8995C12.2991 94.4308 12.0382 91.7992 10.6766 88.9247L7.0616 90.637C8.07412 92.7745 8.2991 94.7496 8.2991 96.8995H12.2991ZM10.6766 88.9247C9.44291 86.3203 7.43725 83.7907 4.45282 81.0399L1.74187 83.9811C4.49894 86.5223 6.12076 88.6508 7.06161 90.637L10.6766 88.9247ZM171.199 5.99951H171.329V1.99951H171.199V5.99951ZM399.296 78.4939L155.026 76.2996L154.99 80.2994L399.26 82.4938L399.296 78.4939Z" fill="#3BADA8" mask="url(#path-3-inside-2)"/>
<mask id="path-5-inside-3" fill="white">
<path d="M8.40067 96.1992C8.40067 100.499 7.50067 104.099 1.20067 109.699C0.400667 110.399 0.600667 111.699 1.60067 112.099C57.2007 134.399 43.0007 165.099 104.801 189.399L105.101 189.499C126.501 194.599 149.401 193.899 171.301 190.999H171.401C256.601 184.999 373.101 173.599 401.601 162.799C402.201 162.599 402.501 162.099 402.501 161.499V154.299C402.501 153.399 401.701 152.699 400.801 152.899C365.201 158.599 190.301 168.299 154.401 168.199C154.001 168.199 153.601 167.999 153.401 167.799C140.101 154.099 142.501 139.199 158.901 132.899C159.101 132.799 159.201 132.799 159.401 132.799C203.301 133.199 305.001 128.499 399.401 123.899C400.101 123.899 400.701 123.299 400.801 122.499L401.201 112.199C401.201 111.399 400.601 110.699 399.801 110.699L154.901 112.899C154.601 112.899 154.301 112.799 154.101 112.699C147.701 108.599 145.301 103.299 145.301 96.1992"/>
</mask>
<path d="M1.20067 109.699L2.51768 111.204L2.52356 111.199L2.52939 111.194L1.20067 109.699ZM1.60067 112.099L2.34518 110.243L2.34345 110.242L1.60067 112.099ZM104.801 189.399L104.069 191.26L104.118 191.28L104.168 191.297L104.801 189.399ZM105.101 189.499L104.468 191.397L104.552 191.424L104.637 191.445L105.101 189.499ZM171.301 190.999V188.999H171.169L171.038 189.017L171.301 190.999ZM171.401 190.999V192.999H171.471L171.541 192.994L171.401 190.999ZM401.601 162.799L400.968 160.902L400.93 160.915L400.892 160.929L401.601 162.799ZM400.801 152.899L401.117 154.874L401.176 154.865L401.235 154.852L400.801 152.899ZM154.401 168.199L154.406 166.199H154.401V168.199ZM153.401 167.799L151.966 169.192L151.976 169.203L151.986 169.213L153.401 167.799ZM158.901 132.899L159.618 134.766L159.708 134.731L159.795 134.688L158.901 132.899ZM159.401 132.799L159.419 130.799L159.41 130.799H159.401V132.799ZM399.401 123.899V121.899H399.352L399.303 121.902L399.401 123.899ZM400.801 122.499L402.785 122.747L402.796 122.662L402.799 122.577L400.801 122.499ZM401.201 112.199L403.199 112.277L403.201 112.238V112.199H401.201ZM399.801 110.699V108.699H399.792L399.783 108.699L399.801 110.699ZM154.901 112.899V114.899H154.91L154.919 114.899L154.901 112.899ZM154.101 112.699L153.022 114.383L153.111 114.441L153.206 114.488L154.101 112.699ZM6.40067 96.1992C6.40067 98.1899 6.19361 99.8366 5.35569 101.606C4.50015 103.412 2.91013 105.504 -0.12806 108.204L2.52939 111.194C5.7912 108.295 7.80118 105.787 8.97064 103.318C10.1577 100.812 10.4007 98.5085 10.4007 96.1992H6.40067ZM-0.116342 108.194C-2.00804 109.849 -1.56859 112.986 0.857886 113.956L2.34345 110.242C2.76993 110.413 2.80937 110.949 2.51768 111.204L-0.116342 108.194ZM0.856159 113.955C28.1773 124.913 38.2642 137.84 49.3322 151.271C60.5748 164.914 72.7344 178.94 104.069 191.26L105.533 187.538C75.0669 175.559 63.4265 162.085 52.4191 148.727C41.2372 135.158 30.6241 121.585 2.34517 110.243L0.856159 113.955ZM104.168 191.297L104.468 191.397L105.733 187.602L105.433 187.502L104.168 191.297ZM104.637 191.445C126.373 196.625 149.547 195.897 171.563 192.982L171.038 189.017C149.254 191.901 126.628 192.574 105.564 187.554L104.637 191.445ZM171.301 192.999H171.401V188.999H171.301V192.999ZM171.541 192.994C214.161 189.993 264.616 185.64 307.99 180.686C329.676 178.209 349.609 175.58 365.915 172.891C382.168 170.211 394.976 167.449 402.309 164.669L400.892 160.929C393.976 163.55 381.533 166.262 365.264 168.945C349.049 171.618 329.188 174.239 307.536 176.712C264.235 181.658 213.84 186.006 171.26 189.004L171.541 192.994ZM402.233 164.697C403.761 164.187 404.501 162.837 404.501 161.499H400.501C400.501 161.467 400.51 161.342 400.612 161.19C400.722 161.024 400.87 160.935 400.968 160.902L402.233 164.697ZM404.501 161.499V154.299H400.501V161.499H404.501ZM404.501 154.299C404.501 152.217 402.609 150.449 400.367 150.947L401.235 154.852C401.047 154.893 400.842 154.836 400.702 154.718C400.571 154.609 400.501 154.452 400.501 154.299H404.501ZM400.484 150.924C382.807 153.755 330.301 157.6 277.595 160.728C224.918 163.854 172.283 166.249 154.406 166.199L154.395 170.199C172.419 170.249 225.183 167.845 277.832 164.721C330.451 161.598 383.195 157.744 401.117 154.874L400.484 150.924ZM154.401 166.199C154.522 166.199 154.591 166.226 154.613 166.236C154.63 166.243 154.651 166.253 154.678 166.271C154.702 166.287 154.752 166.322 154.815 166.385L151.986 169.213C152.536 169.763 153.436 170.199 154.401 170.199V166.199ZM154.836 166.406C148.448 159.826 146.134 153.276 146.988 147.888C147.833 142.564 151.875 137.74 159.618 134.766L158.183 131.032C149.526 134.358 144.168 140.134 143.038 147.261C141.918 154.322 145.054 162.072 151.966 169.192L154.836 166.406ZM159.795 134.688C159.786 134.692 159.749 134.711 159.689 134.731C159.625 134.754 159.554 134.772 159.479 134.785C159.409 134.796 159.357 134.799 159.343 134.799C159.338 134.8 159.341 134.799 159.401 134.799V130.799C159.34 130.799 159.091 130.794 158.822 130.839C158.503 130.892 158.236 130.995 158.006 131.11L159.795 134.688ZM159.382 134.799C203.356 135.2 305.131 130.495 399.498 125.897L399.303 121.902C304.87 126.503 203.245 131.199 159.419 130.799L159.382 134.799ZM399.401 125.899C401.323 125.899 402.588 124.321 402.785 122.747L398.816 122.251C398.819 122.227 398.835 122.162 398.911 122.085C398.991 122.006 399.159 121.899 399.401 121.899V125.899ZM402.799 122.577L403.199 112.277L399.202 112.122L398.802 122.422L402.799 122.577ZM403.201 112.199C403.201 110.478 401.88 108.699 399.801 108.699V112.699C399.588 112.699 399.416 112.599 399.321 112.495C399.235 112.4 399.201 112.295 399.201 112.199H403.201ZM399.783 108.699L154.883 110.899L154.919 114.899L399.819 112.699L399.783 108.699ZM154.901 110.899C154.936 110.899 154.96 110.902 154.972 110.904C154.978 110.905 154.983 110.906 154.985 110.906C154.988 110.907 154.989 110.907 154.989 110.907C154.99 110.907 154.989 110.907 154.988 110.907C154.987 110.907 154.986 110.906 154.986 110.906C154.984 110.905 154.987 110.906 154.995 110.91L153.206 114.488C153.593 114.682 154.203 114.899 154.901 114.899V110.899ZM155.18 111.015C152.224 109.122 150.292 107.02 149.08 104.66C147.862 102.291 147.301 99.5244 147.301 96.1992H143.301C143.301 99.9741 143.939 103.408 145.522 106.488C147.11 109.579 149.578 112.177 153.022 114.383L155.18 111.015Z" fill="#3BADA8" mask="url(#path-5-inside-3)"/>
<path d="M48.9837 146.13C38.8275 133.845 28.0211 121.791 2.82129 111.514C28.0149 121.788 38.8203 133.836 48.9837 146.13ZM48.9837 146.13C49.5522 146.818 50.1186 147.506 50.6854 148.195L50.6872 148.197C50.1198 147.507 49.5527 146.818 48.9837 146.13ZM2.52117 109.853L1.78958 110.527C1.80913 110.501 1.83228 110.475 1.85917 110.452L1.85919 110.452L1.86503 110.447C5.07094 107.597 6.97592 105.193 8.06691 102.89C7.05286 105.031 5.33508 107.259 2.52117 109.853ZM1.97206 111.171C1.95598 111.164 1.94055 111.157 1.9258 111.149L2.79474 111.503C2.52248 111.392 2.24855 111.282 1.97292 111.171L1.97206 111.171ZM401.101 153.866L400.384 153.977C400.58 153.947 400.771 153.917 400.959 153.887L400.988 153.882L401.018 153.875C401.045 153.869 401.073 153.866 401.101 153.866ZM159.378 131.799L159.38 131.799L159.382 131.799C159.346 131.799 159.297 131.799 159.24 131.801C159.298 131.799 159.346 131.799 159.378 131.799ZM158.5 131.982L158.523 131.971C158.516 131.975 158.509 131.978 158.502 131.981C158.493 131.985 158.483 131.988 158.474 131.992L158.5 131.982ZM399.376 122.899L399.436 122.896C399.423 122.898 399.411 122.899 399.401 122.899H399.376Z" stroke="#3BADA8" stroke-width="2"/>
</svg>
