<svg width="528" height="147" viewBox="0 0 528 147" fill="none" xmlns="http://www.w3.org/2000/svg">
<mask id="path-1-inside-1" fill="white">
<path d="M100.2 2.39999C99.2667 11.8667 98.8 20.4 98.8 28C98.8 34.6667 99 40.1333 99.4 44.4H94.8C93.7333 34.1333 92.4 26.5333 90.8 21.6C89.2 16.5333 86.4 12.8667 82.4 10.6C78.4 8.19998 72.2667 6.99998 64 6.99998H51.4C46.6 6.99998 43.0667 7.39998 40.8 8.19999C38.6667 8.86666 37.2 10.3333 36.4 12.6C35.6 14.8667 35.2 18.5333 35.2 23.6V72.8H49.8C54.4667 72.8 58.0667 71.7333 60.6 69.6C63.1333 67.3333 64.8 64.7333 65.6 61.8C66.5333 58.7333 67.2667 54.9333 67.8 50.4L68.4 46.4H73C72.6 52 72.4 58.2667 72.4 65.2V74.8C72.4 81.6 72.8 91.0667 73.6 103.2H69C68.8667 102.267 68.4667 99.0667 67.8 93.6C67.1333 88 65.2667 83.8 62.2 81C59.2667 78.2 55.1333 76.8 49.8 76.8H35.2V122.8C35.2 127.867 35.7333 131.533 36.8 133.8C37.8667 136.067 39.7333 137.6 42.4 138.4C45.0667 139.2 49.4 139.733 55.4 140V144C48.4667 143.6 38.6667 143.4 26 143.4C14.5333 143.4 5.99999 143.6 0.399994 144V140C5.19999 139.733 8.66666 139.2 10.8 138.4C13.0667 137.6 14.6 136.067 15.4 133.8C16.2 131.533 16.6 127.867 16.6 122.8V23.6C16.6 18.5333 16.2 14.8667 15.4 12.6C14.6 10.3333 13.0667 8.79999 10.8 7.99999C8.66666 7.19999 5.19999 6.66665 0.399994 6.39999V2.39999C13.4667 2.79999 32.8 2.99998 58.4 2.99998C78 2.99998 91.9333 2.79999 100.2 2.39999Z"/>
<path d="M165.267 6.39999C160.467 6.66665 156.934 7.19999 154.667 7.99999C152.534 8.79999 151.067 10.3333 150.267 12.6C149.467 14.8667 149.067 18.5333 149.067 23.6V122.8C149.067 127.867 149.467 131.533 150.267 133.8C151.067 136.067 152.534 137.6 154.667 138.4C156.934 139.2 160.467 139.733 165.267 140V144C159.134 143.6 150.667 143.4 139.867 143.4C128.401 143.4 119.867 143.6 114.267 144V140C119.067 139.733 122.534 139.2 124.667 138.4C126.934 137.6 128.467 136.067 129.267 133.8C130.067 131.533 130.467 127.867 130.467 122.8V23.6C130.467 18.5333 130.067 14.8667 129.267 12.6C128.467 10.3333 126.934 8.79999 124.667 7.99999C122.534 7.19999 119.067 6.66665 114.267 6.39999V2.39999C119.867 2.79999 128.401 2.99998 139.867 2.99998C150.534 2.99998 159.001 2.79999 165.267 2.39999V6.39999Z"/>
<path d="M224.841 0.199982C230.707 0.199982 235.307 0.86665 238.641 2.19998C242.107 3.39998 245.641 5.19998 249.241 7.59998C252.174 9.46665 254.441 10.4 256.041 10.4C257.241 10.4 258.174 9.73332 258.841 8.39999C259.507 6.93332 260.041 4.66666 260.441 1.59999H265.041C264.374 9.33332 264.041 22.9333 264.041 42.4H259.441C258.641 31.6 255.507 22.5333 250.041 15.2C244.707 7.73332 236.907 3.99998 226.641 3.99998C219.441 3.99998 213.574 6.19998 209.041 10.6C204.507 14.8667 202.241 20.4 202.241 27.2C202.241 32.2667 203.374 36.6667 205.641 40.4C208.041 44.1333 211.041 47.3333 214.641 50C218.241 52.6667 223.374 56.0667 230.041 60.2L235.841 63.8C244.241 69 250.841 73.6 255.641 77.6C260.574 81.4667 264.507 85.9333 267.441 91C270.374 96.0667 271.841 102 271.841 108.8C271.841 120.933 267.841 130.333 259.841 137C251.841 143.533 241.707 146.8 229.441 146.8C223.041 146.8 217.774 146.133 213.641 144.8C209.641 143.467 205.774 141.667 202.041 139.4C199.107 137.533 196.841 136.6 195.241 136.6C194.041 136.6 193.107 137.333 192.441 138.8C191.774 140.133 191.241 142.333 190.841 145.4H186.241C186.774 138.067 187.041 122.067 187.041 97.4H191.641C192.574 110.867 195.907 121.8 201.641 130.2C207.374 138.6 216.174 142.8 228.041 142.8C235.241 142.8 241.374 140.6 246.441 136.2C251.507 131.667 254.041 125 254.041 116.2C254.041 108.733 251.507 102.4 246.441 97.2C241.507 92 233.641 86.1333 222.841 79.6C214.974 74.8 208.574 70.5333 203.641 66.8C198.841 63.0667 194.907 58.6 191.841 53.4C188.774 48.0667 187.241 41.8667 187.241 34.8C187.241 23.6 190.841 15.0667 198.041 9.19999C205.241 3.19999 214.174 0.199982 224.841 0.199982Z"/>
<path d="M391.648 6.39999L311.848 139.4H351.048C359.315 139.4 365.582 138.267 369.848 136C374.248 133.6 377.448 129.8 379.448 124.6C381.448 119.4 382.915 111.867 383.848 102H388.448C388.048 106.133 387.848 111.6 387.848 118.4C387.848 126 388.315 134.533 389.248 144C379.382 143.6 362.782 143.4 339.448 143.4C316.648 143.4 300.182 143.6 290.048 144V140L370.448 6.99998H331.448C323.182 6.99998 316.848 8.19998 312.448 10.6C308.182 12.8667 305.048 16.6 303.048 21.8C301.048 27 299.582 34.5333 298.648 44.4H294.048C294.448 40.1333 294.648 34.6667 294.648 28C294.648 20.4 294.182 11.8667 293.248 2.39999C303.115 2.79999 319.715 2.99998 343.048 2.99998C365.715 2.99998 381.915 2.79999 391.648 2.39999V6.39999Z"/>
<path d="M513.798 127.2C516.998 135.467 521.598 139.733 527.598 140V144C522.265 143.6 515.132 143.4 506.198 143.4C494.732 143.4 486.198 143.6 480.598 144V140C485.665 139.733 489.265 139.133 491.398 138.2C493.665 137.133 494.798 135.267 494.798 132.6C494.798 130.333 493.998 127.2 492.398 123.2L480.198 90.4H431.798L423.598 111.6C420.932 118.8 419.598 124.267 419.598 128C419.598 132.133 420.998 135.133 423.798 137C426.732 138.867 431.132 139.867 436.998 140V144C429.398 143.6 421.732 143.4 413.998 143.4C407.998 143.4 402.998 143.6 398.998 144V140C405.665 138.4 410.932 132.6 414.798 122.6L461.798 1.39998H464.998L513.798 127.2ZM478.598 86.4L456.198 26.6L433.398 86.4H478.598Z"/>
</mask>
<path d="M100.2 2.39999C99.2667 11.8667 98.8 20.4 98.8 28C98.8 34.6667 99 40.1333 99.4 44.4H94.8C93.7333 34.1333 92.4 26.5333 90.8 21.6C89.2 16.5333 86.4 12.8667 82.4 10.6C78.4 8.19998 72.2667 6.99998 64 6.99998H51.4C46.6 6.99998 43.0667 7.39998 40.8 8.19999C38.6667 8.86666 37.2 10.3333 36.4 12.6C35.6 14.8667 35.2 18.5333 35.2 23.6V72.8H49.8C54.4667 72.8 58.0667 71.7333 60.6 69.6C63.1333 67.3333 64.8 64.7333 65.6 61.8C66.5333 58.7333 67.2667 54.9333 67.8 50.4L68.4 46.4H73C72.6 52 72.4 58.2667 72.4 65.2V74.8C72.4 81.6 72.8 91.0667 73.6 103.2H69C68.8667 102.267 68.4667 99.0667 67.8 93.6C67.1333 88 65.2667 83.8 62.2 81C59.2667 78.2 55.1333 76.8 49.8 76.8H35.2V122.8C35.2 127.867 35.7333 131.533 36.8 133.8C37.8667 136.067 39.7333 137.6 42.4 138.4C45.0667 139.2 49.4 139.733 55.4 140V144C48.4667 143.6 38.6667 143.4 26 143.4C14.5333 143.4 5.99999 143.6 0.399994 144V140C5.19999 139.733 8.66666 139.2 10.8 138.4C13.0667 137.6 14.6 136.067 15.4 133.8C16.2 131.533 16.6 127.867 16.6 122.8V23.6C16.6 18.5333 16.2 14.8667 15.4 12.6C14.6 10.3333 13.0667 8.79999 10.8 7.99999C8.66666 7.19999 5.19999 6.66665 0.399994 6.39999V2.39999C13.4667 2.79999 32.8 2.99998 58.4 2.99998C78 2.99998 91.9333 2.79999 100.2 2.39999Z" stroke="#FFF5EE" stroke-width="6" mask="url(#path-1-inside-1)"/>
<path d="M165.267 6.39999C160.467 6.66665 156.934 7.19999 154.667 7.99999C152.534 8.79999 151.067 10.3333 150.267 12.6C149.467 14.8667 149.067 18.5333 149.067 23.6V122.8C149.067 127.867 149.467 131.533 150.267 133.8C151.067 136.067 152.534 137.6 154.667 138.4C156.934 139.2 160.467 139.733 165.267 140V144C159.134 143.6 150.667 143.4 139.867 143.4C128.401 143.4 119.867 143.6 114.267 144V140C119.067 139.733 122.534 139.2 124.667 138.4C126.934 137.6 128.467 136.067 129.267 133.8C130.067 131.533 130.467 127.867 130.467 122.8V23.6C130.467 18.5333 130.067 14.8667 129.267 12.6C128.467 10.3333 126.934 8.79999 124.667 7.99999C122.534 7.19999 119.067 6.66665 114.267 6.39999V2.39999C119.867 2.79999 128.401 2.99998 139.867 2.99998C150.534 2.99998 159.001 2.79999 165.267 2.39999V6.39999Z" stroke="#FFF5EE" stroke-width="6" mask="url(#path-1-inside-1)"/>
<path d="M224.841 0.199982C230.707 0.199982 235.307 0.86665 238.641 2.19998C242.107 3.39998 245.641 5.19998 249.241 7.59998C252.174 9.46665 254.441 10.4 256.041 10.4C257.241 10.4 258.174 9.73332 258.841 8.39999C259.507 6.93332 260.041 4.66666 260.441 1.59999H265.041C264.374 9.33332 264.041 22.9333 264.041 42.4H259.441C258.641 31.6 255.507 22.5333 250.041 15.2C244.707 7.73332 236.907 3.99998 226.641 3.99998C219.441 3.99998 213.574 6.19998 209.041 10.6C204.507 14.8667 202.241 20.4 202.241 27.2C202.241 32.2667 203.374 36.6667 205.641 40.4C208.041 44.1333 211.041 47.3333 214.641 50C218.241 52.6667 223.374 56.0667 230.041 60.2L235.841 63.8C244.241 69 250.841 73.6 255.641 77.6C260.574 81.4667 264.507 85.9333 267.441 91C270.374 96.0667 271.841 102 271.841 108.8C271.841 120.933 267.841 130.333 259.841 137C251.841 143.533 241.707 146.8 229.441 146.8C223.041 146.8 217.774 146.133 213.641 144.8C209.641 143.467 205.774 141.667 202.041 139.4C199.107 137.533 196.841 136.6 195.241 136.6C194.041 136.6 193.107 137.333 192.441 138.8C191.774 140.133 191.241 142.333 190.841 145.4H186.241C186.774 138.067 187.041 122.067 187.041 97.4H191.641C192.574 110.867 195.907 121.8 201.641 130.2C207.374 138.6 216.174 142.8 228.041 142.8C235.241 142.8 241.374 140.6 246.441 136.2C251.507 131.667 254.041 125 254.041 116.2C254.041 108.733 251.507 102.4 246.441 97.2C241.507 92 233.641 86.1333 222.841 79.6C214.974 74.8 208.574 70.5333 203.641 66.8C198.841 63.0667 194.907 58.6 191.841 53.4C188.774 48.0667 187.241 41.8667 187.241 34.8C187.241 23.6 190.841 15.0667 198.041 9.19999C205.241 3.19999 214.174 0.199982 224.841 0.199982Z" stroke="#FFF5EE" stroke-width="6" mask="url(#path-1-inside-1)"/>
<path d="M391.648 6.39999L311.848 139.4H351.048C359.315 139.4 365.582 138.267 369.848 136C374.248 133.6 377.448 129.8 379.448 124.6C381.448 119.4 382.915 111.867 383.848 102H388.448C388.048 106.133 387.848 111.6 387.848 118.4C387.848 126 388.315 134.533 389.248 144C379.382 143.6 362.782 143.4 339.448 143.4C316.648 143.4 300.182 143.6 290.048 144V140L370.448 6.99998H331.448C323.182 6.99998 316.848 8.19998 312.448 10.6C308.182 12.8667 305.048 16.6 303.048 21.8C301.048 27 299.582 34.5333 298.648 44.4H294.048C294.448 40.1333 294.648 34.6667 294.648 28C294.648 20.4 294.182 11.8667 293.248 2.39999C303.115 2.79999 319.715 2.99998 343.048 2.99998C365.715 2.99998 381.915 2.79999 391.648 2.39999V6.39999Z" stroke="#FFF5EE" stroke-width="6" mask="url(#path-1-inside-1)"/>
<path d="M513.798 127.2C516.998 135.467 521.598 139.733 527.598 140V144C522.265 143.6 515.132 143.4 506.198 143.4C494.732 143.4 486.198 143.6 480.598 144V140C485.665 139.733 489.265 139.133 491.398 138.2C493.665 137.133 494.798 135.267 494.798 132.6C494.798 130.333 493.998 127.2 492.398 123.2L480.198 90.4H431.798L423.598 111.6C420.932 118.8 419.598 124.267 419.598 128C419.598 132.133 420.998 135.133 423.798 137C426.732 138.867 431.132 139.867 436.998 140V144C429.398 143.6 421.732 143.4 413.998 143.4C407.998 143.4 402.998 143.6 398.998 144V140C405.665 138.4 410.932 132.6 414.798 122.6L461.798 1.39998H464.998L513.798 127.2ZM478.598 86.4L456.198 26.6L433.398 86.4H478.598Z" stroke="#FFF5EE" stroke-width="6" mask="url(#path-1-inside-1)"/>
</svg>
