<?xml version="1.0" encoding="utf-8"?>
<!-- Generator: Adobe Illustrator 23.0.1, SVG Export Plug-In . SVG Version: 6.00 Build 0)  -->
<svg version="1.1" id="Warstwa_1" xmlns="http://www.w3.org/2000/svg" xmlns:xlink="http://www.w3.org/1999/xlink" x="0px" y="0px"
	 viewBox="0 0 404 194.6" style="enable-background:new 0 0 404 194.6;" xml:space="preserve">
<style type="text/css">
	.st0{fill:#3BADA8;}
	.st1{fill:#141615;stroke:#141615;stroke-miterlimit:10;}
</style>
<g>
	<path class="st0" d="M9.3,96.9c0-4.3-0.9-7.9-7.2-13.5c-0.8-0.7-0.6-2,0.4-2.4C58.1,58.7,43.9,28,105.8,3.6l0.3-0.1
		c13.2-3.6,37.4-4.4,66.2-1.5h0.1c85.2,6,201.7,17.4,230.2,28.2c0.6,0.2,0.9,0.7,0.9,1.3v7.2c0,0.9-0.8,1.6-1.7,1.4
		C366.2,34.6,191.3,24.9,155.5,25c-0.4,0-0.8,0.2-1,0.4C141.2,39.1,143.6,54,160,60.3c0.2,0.1,0.3,0.1,0.5,0.1
		c43.9-0.4,145.6,4.3,240,8.9c0.7,0,1.3,0.6,1.4,1.4l0.4,10.3c0,0.8-0.6,1.5-1.4,1.5L156,80.3c-0.3,0-0.6,0.1-0.8,0.2
		c-6.4,4.1-8.8,9.4-8.8,16.5"/>
</g>
<path class="st1" d="M86,55.7c-18.4,0-18.4,28.6,0,28.6C104.2,84.3,104.2,55.7,86,55.7"/>
<g>
	<path class="st0" d="M9.4,96.2c0,4.3-0.9,7.9-7.2,13.5c-0.8,0.7-0.6,2,0.4,2.4c55.6,22.3,41.4,53,103.2,77.3l0.3,0.1
		c21.4,5.1,44.3,4.4,66.2,1.5h0.1c85.2-6,201.7-17.4,230.2-28.2c0.6-0.2,0.9-0.7,0.9-1.3v-7.2c0-0.9-0.8-1.6-1.7-1.4
		c-35.6,5.7-210.5,15.4-246.4,15.3c-0.4,0-0.8-0.2-1-0.4c-13.3-13.7-10.9-28.6,5.5-34.9c0.2-0.1,0.3-0.1,0.5-0.1
		c43.9,0.4,145.6-4.3,240-8.9c0.7,0,1.3-0.6,1.4-1.4l0.4-10.3c0-0.8-0.6-1.5-1.4-1.5l-244.9,2.2c-0.3,0-0.6-0.1-0.8-0.2
		c-6.4-4.1-8.8-9.4-8.8-16.5"/>
</g>
</svg>
